<?xml version="1.0" encoding="UTF-8" standalone="no"?>
<!-- Created with Inkscape (http://www.inkscape.org/) -->
<svg
   xmlns:dc="http://purl.org/dc/elements/1.1/"
   xmlns:cc="http://web.resource.org/cc/"
   xmlns:rdf="http://www.w3.org/1999/02/22-rdf-syntax-ns#"
   xmlns:svg="http://www.w3.org/2000/svg"
   xmlns="http://www.w3.org/2000/svg"
   xmlns:xlink="http://www.w3.org/1999/xlink"
   xmlns:sodipodi="http://sodipodi.sourceforge.net/DTD/sodipodi-0.dtd"
   xmlns:inkscape="http://www.inkscape.org/namespaces/inkscape"
   id="svg1998"
   sodipodi:version="0.32"
   inkscape:version="0.45"
   width="66.000435"
   height="44.5159"
   version="1.0"
   sodipodi:docbase="/home/grossmj/workspace/gns3/svg/symbols"
   sodipodi:docname="edge_label_switch_router.svg"
   inkscape:output_extension="org.inkscape.output.svg.inkscape"
   sodipodi:modified="true">
  <metadata
     id="metadata2003">
    <rdf:RDF>
      <cc:Work
         rdf:about="">
        <dc:format>image/svg+xml</dc:format>
        <dc:type
           rdf:resource="http://purl.org/dc/dcmitype/StillImage" />
        <dc:title>Edge label switch router</dc:title>
        <dc:creator>
          <cc:Agent>
            <dc:title>Jeremy Grossmann</dc:title>
          </cc:Agent>
        </dc:creator>
        <dc:publisher>
          <cc:Agent>
            <dc:title>GNS-3</dc:title>
          </cc:Agent>
        </dc:publisher>
        <dc:description>Created for the GNS-3 project (www.gns3.net)</dc:description>
        <cc:license
           rdf:resource="http://creativecommons.org/licenses/GPL/2.0/" />
      </cc:Work>
      <cc:License
         rdf:about="http://creativecommons.org/licenses/GPL/2.0/">
        <cc:permits
           rdf:resource="http://web.resource.org/cc/Reproduction" />
        <cc:permits
           rdf:resource="http://web.resource.org/cc/Distribution" />
        <cc:requires
           rdf:resource="http://web.resource.org/cc/Notice" />
        <cc:permits
           rdf:resource="http://web.resource.org/cc/DerivativeWorks" />
        <cc:requires
           rdf:resource="http://web.resource.org/cc/ShareAlike" />
        <cc:requires
           rdf:resource="http://web.resource.org/cc/SourceCode" />
      </cc:License>
    </rdf:RDF>
  </metadata>
  <defs
     id="defs2001">
    <linearGradient
       inkscape:collect="always"
       id="linearGradient9312">
      <stop
         style="stop-color:#1e6464;stop-opacity:1;"
         offset="0"
         id="stop9314" />
      <stop
         style="stop-color:#1e6464;stop-opacity:0;"
         offset="1"
         id="stop9316" />
    </linearGradient>
    <marker
       inkscape:stockid="Arrow2Lstart"
       orient="auto"
       refY="0"
       refX="0"
       id="Arrow2Lstart"
       style="overflow:visible">
      <path
         id="path11918"
         style="font-size:12px;fill-rule:evenodd;stroke-width:0.625;stroke-linejoin:round"
         d="M 8.7185878,4.0337352 L -2.2072895,0.016013256 L 8.7185884,-4.0017078 C 6.97309,-1.6296469 6.9831476,1.6157441 8.7185878,4.0337352 z "
         transform="matrix(1.1,0,0,1.1,1.1,0)" />
    </marker>
    <marker
       inkscape:stockid="Arrow1Send"
       orient="auto"
       refY="0"
       refX="0"
       id="Arrow1Send"
       style="overflow:visible">
      <path
         id="path11921"
         d="M 0,0 L 5,-5 L -12.5,0 L 5,5 L 0,0 z "
         style="fill-rule:evenodd;stroke:black;stroke-width:1pt;marker-start:none"
         transform="matrix(-0.2,0,0,-0.2,-1.2,0)" />
    </marker>
    <marker
       inkscape:stockid="Arrow1Lstart"
       orient="auto"
       refY="0"
       refX="0"
       id="Arrow1Lstart"
       style="overflow:visible">
      <path
         id="path11936"
         d="M 0,0 L 5,-5 L -12.5,0 L 5,5 L 0,0 z "
         style="fill-rule:evenodd;stroke:black;stroke-width:1pt;marker-start:none"
         transform="matrix(0.8,0,0,0.8,10,0)" />
    </marker>
    <linearGradient
       inkscape:collect="always"
       xlink:href="#linearGradient9312"
       id="linearGradient9318"
       x1="-1.0929121"
       y1="0.63145506"
       x2="-4.5832458"
       y2="0.070047863"
       gradientUnits="userSpaceOnUse"
       gradientTransform="matrix(0.995127,0,0,0.935706,-4.693559e-3,1.810452e-2)" />
  </defs>
  <sodipodi:namedview
     inkscape:window-height="953"
     inkscape:window-width="1280"
     inkscape:pageshadow="2"
     inkscape:pageopacity="0.0"
     guidetolerance="10.0"
     gridtolerance="10.0"
     objecttolerance="10.0"
     borderopacity="1.0"
     bordercolor="#666666"
     pagecolor="#ffffff"
     id="base"
     showguides="true"
     inkscape:guide-bbox="true"
     inkscape:zoom="7.8958335"
     inkscape:cx="30.34404"
     inkscape:cy="21.831177"
     inkscape:window-x="0"
     inkscape:window-y="25"
     inkscape:current-layer="svg1998" />
  <rect
     style="opacity:1;fill:black;fill-opacity:0.39215686;fill-rule:evenodd;stroke:none;stroke-width:0.2;stroke-linecap:square;stroke-linejoin:miter;stroke-miterlimit:4;stroke-dasharray:none;stroke-opacity:1"
     id="rect4558"
     width="64.552505"
     height="41.53862"
     x="1.4479325"
     y="2.9772801"
     ry="11.631706"
     rx="32.212925"
     inkscape:transform-center-x="8.4568136" />
  <rect
     style="opacity:1;fill:#1e5a5a;fill-opacity:1;fill-rule:evenodd;stroke:lime;stroke-width:0.015;stroke-linecap:square;stroke-linejoin:miter;stroke-miterlimit:4;stroke-dasharray:none;stroke-opacity:1"
     id="rect9971"
     width="64.499474"
     height="42.154343"
     x="0.0625"
     y="0.18084903"
     ry="11.557454"
     rx="32.249737"
     inkscape:transform-center-x="8.2952569" />
  <g
     id="g4844"
     transform="matrix(15.32752,0,0,15.05026,53.53947,3.14636)">
    <path
       id="path8417"
       d="M 0.71321806,0.55701504 L 0.70949727,0.5181949 L 0.70205573,0.47937479 L 0.6896531,0.44184876 L 0.67104911,0.40302865 L 0.64624385,0.3655025 L 0.61771767,0.32797636 L 0.58299028,0.2917443 L 0.5433017,0.25680613 L 0.4986521,0.22186804 L 0.44904152,0.18822402 L 0.39571014,0.15457993 L 0.33741761,0.12222978 L 0.27416401,0.089879658 L 0.20718972,0.061411561 L 0.13525424,0.032943459 L 0.059598056,0.0044753597 L -0.018538667,-0.021404679 L -0.10163643,-0.044696771 L -0.18721482,-0.067988747 L -0.27651393,-0.088692897 L -0.36829359,-0.10810294 L -0.46255386,-0.12621905 L -0.55929456,-0.14174705 L -0.65727555,-0.15727508 L -0.75773708,-0.16892108 L -0.86067913,-0.17927313 L -0.96486148,-0.18833121 L -1.0690435,-0.19480118 L -1.1744663,-0.19997727 L -1.2811291,-0.20385928 L -1.3865516,-0.20385928 L -1.3865516,-0.20385928 L -1.4932144,-0.20385928 L -1.5998772,-0.19997727 L -1.7040597,-0.19480118 L -1.8094823,-0.18833121 L -1.9136646,-0.17927313 L -2.0153663,-0.16892108 L -2.1170681,-0.15727508 L -2.2150491,-0.14174705 L -2.31179,-0.12621905 L -2.4060501,-0.10810294 L -2.4978296,-0.088692897 L -2.587129,-0.067988747 L -2.6727073,-0.044696771 L -2.755805,-0.021404679 L -2.8339416,0.0044753597 L -2.9095979,0.032943459 L -2.9815335,0.061411561 L -3.0485078,0.089879658 L -3.1117617,0.12222978 L -3.1700538,0.15457993 L -3.2233855,0.18822402 L -3.2729958,0.22186804 L -3.3176454,0.25680613 L -3.3560935,0.2917443 L -3.3920615,0.32797636 L -3.4205874,0.3655025 L -3.4453929,0.40302865 L -3.4639968,0.44184876 L -3.4776397,0.47937479 L -3.4850813,0.5181949 L -3.4875618,0.55701504 L -3.4875618,0.55701504 L -3.4850813,0.59583514 L -3.4776397,0.63336127 L -3.4639968,0.6721814 L -3.4453929,0.70841345 L -3.4205874,0.74723366 L -3.3920615,0.78346574 L -3.3560935,0.82099188 L -3.3176454,0.85722393 L -3.2729958,0.89216212 L -3.2233855,0.92451225 L -3.1700538,0.95815615 L -3.1117617,0.99180025 L -3.0485078,1.0215622 L -2.9815335,1.0513245 L -2.9095979,1.0810867 L -2.8339416,1.1082607 L -2.755805,1.1341407 L -2.6727073,1.1574331 L -2.587129,1.1807251 L -2.4978296,1.2014289 L -2.4060501,1.2221333 L -2.31179,1.2389552 L -2.2150491,1.255777 L -2.1170681,1.270011 L -2.0153663,1.2816572 L -1.9136646,1.2920094 L -1.8094823,1.3010673 L -1.7040597,1.3075373 L -1.5998772,1.3127134 L -1.4932144,1.3165956 L -1.3865516,1.3165956 L -1.3865516,1.3165956 L -1.2811291,1.3165956 L -1.1744663,1.3127134 L -1.0690435,1.3075373 L -0.96486148,1.3010673 L -0.86067913,1.2920094 L -0.75773708,1.2816572 L -0.65727555,1.270011 L -0.55929456,1.255777 L -0.46255386,1.2389552 L -0.36829359,1.2221333 L -0.27651393,1.2014289 L -0.18721482,1.1807251 L -0.10163643,1.1574331 L -0.018538667,1.1341407 L 0.059598056,1.1082607 L 0.13525424,1.0810867 L 0.20718972,1.0513245 L 0.27416401,1.0215622 L 0.33741761,0.99180025 L 0.39571014,0.95815615 L 0.44904152,0.92451225 L 0.4986521,0.89216212 L 0.5433017,0.85722393 L 0.58299028,0.82099188 L 0.61771767,0.78346574 L 0.64624385,0.74723366 L 0.67104911,0.70841345 L 0.6896531,0.6721814 L 0.70205573,0.63336127 L 0.70949727,0.59583514 L 0.71321806,0.55701504"
       style="fill:white;fill-opacity:1;stroke:lime;stroke-width:0.00126814;stroke-miterlimit:4;stroke-dasharray:none;stroke-opacity:1" />
    <path
       id="path4815"
       d="M 0.71600616,0.5577935 L 0.71228488,0.51888027 L 0.70484194,0.47996714 L 0.69243712,0.44235119 L 0.67382995,0.40343806 L 0.6490205,0.36582202 L 0.6204894,0.32820597 L 0.58575603,0.29188711 L 0.54606069,0.25686532 L 0.50140348,0.22184339 L 0.45178432,0.18811871 L 0.39844387,0.15439394 L 0.34014135,0.12196639 L 0.27687697,0.089538736 L 0.20989112,0.061002435 L 0.1379434,0.032466134 L 0.0622743,0.0039298431 L -0.015875883,-0.0220123 L -0.098987831,-0.045360166 L -0.18458086,-0.068708033 L -0.27389531,-0.089461745 L -0.36569069,-0.10891827 L -0.45996704,-0.12707781 L -0.55672434,-0.142643 L -0.65472211,-0.15820828 L -0.75520084,-0.16988222 L -0.85816052,-0.18025905 L -0.96236068,-0.18933882 L -1.0665608,-0.19582433 L -1.1720013,-0.20101277 L -1.2786826,-0.20490409 L -1.3841231,-0.20490409 L -1.3841231,-0.20490409 L -1.4908044,-0.20490409 L -1.5974854,-0.20101277 L -1.7016856,-0.19582433 L -1.8071263,-0.18933882 L -1.9113264,-0.18025905 L -2.0130457,-0.16988222 L -2.1147647,-0.15820828 L -2.2127626,-0.142643 L -2.3095199,-0.12707781 L -2.4037963,-0.10891827 L -2.4955916,-0.089461745 L -2.5849059,-0.068708033 L -2.6704991,-0.045360166 L -2.753611,-0.0220123 L -2.8317613,0.0039298431 L -2.9074306,0.032466134 L -2.979378,0.061002435 L -3.0463639,0.089538736 L -3.1096284,0.12196639 L -3.1679307,0.15439394 L -3.2212714,0.18811871 L -3.2708903,0.22184339 L -3.3155478,0.25686532 L -3.3540024,0.29188711 L -3.3899763,0.32820597 L -3.4185072,0.36582202 L -3.443317,0.40343806 L -3.461924,0.44235119 L -3.4755695,0.47996714 L -3.4830122,0.51888027 L -3.4854932,0.5577935 L -3.4854932,0.5577935 L -3.4830122,0.59670663 L -3.4755695,0.63432269 L -3.461924,0.6732358 L -3.443317,0.70955478 L -3.4185072,0.74846789 L -3.3899763,0.78478677 L -3.3540024,0.82240282 L -3.3155478,0.85872189 L -3.2708903,0.89374367 L -3.2212714,0.9261713 L -3.1679307,0.9598959 L -3.1096284,0.9936206 L -3.0463639,1.023454 L -2.979378,1.0532875 L -2.9074306,1.083121 L -2.8317613,1.1103603 L -2.753611,1.1363024 L -2.6704991,1.1596501 L -2.5849059,1.182998 L -2.4955916,1.2037516 L -2.4037963,1.2245055 L -2.3095199,1.2413676 L -2.2127626,1.25823 L -2.1147647,1.2724981 L -2.0130457,1.2841722 L -1.9113264,1.2945491 L -1.8071263,1.3036288 L -1.7016856,1.3101143 L -1.5974854,1.3153028 L -1.4908044,1.3191941 L -1.3841231,1.3191941 L -1.3841231,1.3191941 L -1.2786826,1.3191941 L -1.1720013,1.3153028 L -1.0665608,1.3101143 L -0.96236068,1.3036288 L -0.85816052,1.2945491 L -0.75520084,1.2841722 L -0.65472211,1.2724981 L -0.55672434,1.25823 L -0.45996704,1.2413676 L -0.36569069,1.2245055 L -0.27389531,1.2037516 L -0.18458086,1.182998 L -0.098987831,1.1596501 L -0.015875883,1.1363024 L 0.0622743,1.1103603 L 0.1379434,1.083121 L 0.20989112,1.0532875 L 0.27687697,1.023454 L 0.34014135,0.9936206 L 0.39844387,0.9598959 L 0.45178432,0.9261713 L 0.50140348,0.89374367 L 0.54606069,0.85872189 L 0.58575603,0.82240282 L 0.6204894,0.78478677 L 0.6490205,0.74846789 L 0.67382995,0.70955478 L 0.69243712,0.6732358 L 0.70484194,0.63432269 L 0.71228488,0.59670663 L 0.71600616,0.5577935"
       style="fill:url(#linearGradient9318);fill-opacity:1;stroke:lime;stroke-width:0.0012698;stroke-miterlimit:4;stroke-dasharray:none;stroke-opacity:1" />
    <path
       id="path4819"
       d="M -1.33849,0.36858725 L -1.0356914,0.47713947 L -0.30208129,0.15279051 L 0.026566252,0.26003493 L -0.15068185,-0.0080759962 L -1.0098426,-0.0080759962 L -0.65657744,0.071703344 L -1.33849,0.36858725"
       style="fill:black;stroke:none;stroke-width:0.001" />
    <path
       id="path4821"
       d="M -1.4652716,0.66547114 L -1.7680705,0.55691872 L -2.4758321,0.88257557 L -2.8290973,0.77271548 L -2.6530801,1.0695994 L -1.7680705,1.0695994 L -2.1471844,0.96235491 L -1.4652716,0.66547114"
       style="fill:black;stroke:none;stroke-width:0.001" />
    <path
       id="path4823"
       d="M -2.7540132,0.071703344 L -2.4512142,-0.035541049 L -1.7176041,0.26003493 L -1.3889566,0.18025558 L -1.5649738,0.4483666 L -2.4253655,0.4483666 L -2.0721002,0.36858725 L -2.7540132,0.071703344"
       style="fill:black;stroke:none;stroke-width:0.001" />
    <path
       id="path4825"
       d="M -0.025131126,0.98851204 L -0.32792995,1.0970646 L -1.0356914,0.77271548 L -1.3889566,0.88257557 L -1.2117084,0.61054094 L -0.32792995,0.61054094 L -0.70704393,0.69162816 L -0.025131126,0.98851204"
       style="fill:black;stroke:none;stroke-width:0.001" />
    <path
       id="path4827"
       d="M -1.3126412,0.39605225 L -1.0098426,0.5032966 L -0.27746349,0.18025558 L 0.051183983,0.28880781 L -0.12606407,0.01808111 L -0.98522494,0.01808111 L -0.63072878,0.097860584 L -1.3126412,0.39605225"
       style="fill:white;stroke:none;stroke-width:0.001" />
    <path
       id="path4829"
       d="M -1.4394233,0.69162816 L -1.7434526,0.58438371 L -2.4512142,0.90742492 L -2.8044796,0.80018047 L -2.6284624,1.0970646 L -1.7434526,1.0970646 L -2.1225667,0.98851204 L -1.4394233,0.69162816"
       style="fill:white;stroke:none;stroke-width:0.001" />
    <path
       id="path4831"
       d="M -2.7281644,0.097860584 L -2.4253655,-0.0080759962 L -1.6917554,0.28880781 L -1.3643387,0.20641282 L -1.5403559,0.47713947 L -2.4007476,0.47713947 L -2.0462515,0.39605225 L -2.7281644,0.097860584"
       style="fill:white;stroke:none;stroke-width:0.001" />
    <path
       id="path4833"
       d="M -0.00051329876,1.0159771 L -0.30208129,1.1245296 L -1.0098426,0.80018047 L -1.3643387,0.90742492 L -1.1870906,0.6393139 L -0.30208129,0.6393139 L -0.68119522,0.71909325 L -0.00051329876,1.0159771"
       style="fill:white;stroke:none;stroke-width:0.001" />
  </g>
  <path
     d="M 69.76851,25.193573 L 69.711116,24.624229 L 69.596338,24.054884 L 69.405016,23.504517 L 69.118042,22.935171 L 68.73542,22.384804 L 68.295403,21.834436 L 67.759724,21.303046 L 67.147524,20.790637 L 66.4588,20.278226 L 65.693543,19.784793 L 64.870891,19.291361 L 63.97173,18.816907 L 62.996022,18.342451 L 61.962932,17.924933 L 60.853318,17.507412 L 59.686313,17.089892 L 58.481039,16.710328 L 57.19923,16.368721 L 55.879179,16.027114 L 54.501722,15.723464 L 53.086007,15.438791 L 51.632028,15.173096 L 50.139782,14.945358 L 48.628407,14.71762 L 47.078776,14.546816 L 45.490869,14.394991 L 43.883845,14.262144 L 42.27681,14.167253 L 40.650645,14.09134 L 39.005365,14.034406 L 37.379194,14.034406 L 37.379194,14.034406 L 35.733901,14.034406 L 34.088608,14.09134 L 32.481579,14.167253 L 30.855416,14.262144 L 29.248386,14.394991 L 27.67962,14.546816 L 26.11085,14.71762 L 24.599479,14.945358 L 23.107236,15.173096 L 21.653255,15.438791 L 20.237541,15.723464 L 18.860086,16.027114 L 17.540021,16.368721 L 16.258225,16.710328 L 15.052952,17.089892 L 13.885944,17.507412 L 12.776325,17.924933 L 11.743235,18.342451 L 10.767537,18.816907 L 9.868366,19.291361 L 9.0457194,19.784793 L 8.2804672,20.278226 L 7.5917395,20.790637 L 6.9986686,21.303046 L 6.4438611,21.834436 L 6.0038404,22.384804 L 5.6212144,22.935171 L 5.3342439,23.504517 L 5.1238003,24.054884 L 5.0090123,24.624229 L 4.970749,25.193573 L 4.970749,25.193573 L 5.0090123,25.762918 L 5.1238003,26.313285 L 5.3342439,26.882629 L 5.6212144,27.41402 L 6.0038404,27.983364 L 6.4438611,28.514755 L 6.9986686,29.065122 L 7.5917395,29.596511 L 8.2804672,30.10892 L 9.0457194,30.583375 L 9.868366,31.076806 L 10.767537,31.570241 L 11.743235,32.006741 L 12.776325,32.443237 L 13.885944,32.879735 L 15.052952,33.278276 L 16.258225,33.657841 L 17.540021,33.999451 L 18.860086,34.341056 L 20.237541,34.644705 L 21.653255,34.948358 L 23.107236,35.195072 L 24.599479,35.44179 L 26.11085,35.650549 L 27.67962,35.821353 L 29.248386,35.97318 L 30.855416,36.106024 L 32.481579,36.200915 L 34.088608,36.27683 L 35.733901,36.333762 L 37.379194,36.333762 L 37.379194,36.333762 L 39.005365,36.333762 L 40.650645,36.27683 L 42.27681,36.200915 L 43.883845,36.106024 L 45.490869,35.97318 L 47.078776,35.821353 L 48.628407,35.650549 L 50.139782,35.44179 L 51.632028,35.195072 L 53.086007,34.948358 L 54.501722,34.644705 L 55.879179,34.341056 L 57.19923,33.999451 L 58.481039,33.657841 L 59.686313,33.278276 L 60.853318,32.879735 L 61.962932,32.443237 L 62.996022,32.006741 L 63.97173,31.570241 L 64.870891,31.076806 L 65.693543,30.583375 L 66.4588,30.10892 L 67.147524,29.596511 L 67.759724,29.065122 L 68.295403,28.514755 L 68.73542,27.983364 L 69.118042,27.41402 L 69.405016,26.882629 L 69.596338,26.313285 L 69.711116,25.762918 L 69.76851,25.193573"
     id="path10"
     style="fill:none;fill-opacity:1;stroke:none;stroke-width:0.001" />
  <path
     d="M 69.385591,25.721881 L 69.347324,25.115465 L 69.232536,24.54948 L 69.022099,23.963278 L 68.735128,23.377077 L 68.371636,22.811088 L 67.893357,22.224886 L 67.415078,21.679111 L 66.783756,21.113125 L 66.114166,20.587565 L 65.348917,20.041791 L 64.507146,19.556658 L 63.627119,19.051311 L 62.651432,18.56618 L 61.637479,18.121475 L 60.547004,17.656556 L 59.380007,17.272493 L 58.155604,16.868216 L 56.912087,16.484153 L 55.592037,16.140517 L 54.233729,15.796881 L 52.818018,15.513887 L 51.364052,15.230895 L 49.890958,15.008542 L 48.379597,14.765976 L 46.84911,14.584051 L 45.261228,14.422341 L 43.673335,14.280844 L 42.066324,14.179774 L 40.459304,14.098919 L 38.814028,14.058492 L 37.187886,14.038277 L 37.187886,14.038277 L 35.542603,14.058492 L 33.935588,14.098919 L 32.309442,14.179774 L 30.702425,14.280844 L 29.114544,14.422341 L 27.545789,14.584051 L 25.996165,14.765976 L 24.484807,15.008542 L 22.992578,15.230895 L 21.557743,15.513887 L 20.142037,15.796881 L 18.783726,16.140517 L 17.482813,16.484153 L 16.220157,16.868216 L 14.995763,17.272493 L 13.847893,17.656556 L 12.757417,18.121475 L 11.724337,18.56618 L 10.74865,19.051311 L 9.849487,19.556658 L 9.0459788,20.041791 L 8.2807336,20.587565 L 7.5920123,21.113125 L 6.9989468,21.679111 L 6.4632755,22.224886 L 6.0041278,22.811088 L 5.6406363,23.377077 L 5.3536696,23.963278 L 5.1432267,24.54948 L 5.0284399,25.115465 L 4.9710459,25.721881 L 4.9710459,25.721881 L 5.0284399,26.328301 L 5.1432267,26.9145 L 5.3536696,27.5007 L 5.6406363,28.06669 L 6.0041278,28.652891 L 6.4632755,29.218881 L 6.9989468,29.764652 L 7.5920123,30.330641 L 8.2807336,30.856201 L 9.0459788,31.401973 L 9.849487,31.907322 L 10.74865,32.392454 L 11.724337,32.877585 L 12.757417,33.342503 L 13.847893,33.766996 L 14.995763,34.171269 L 16.220157,34.57555 L 17.482813,34.939398 L 18.783726,35.303251 L 20.142037,35.62667 L 21.557743,35.950092 L 22.992578,36.192659 L 24.484807,36.455437 L 25.996165,36.677789 L 27.545789,36.859714 L 29.114544,37.041639 L 30.702425,37.162921 L 32.309442,37.263991 L 33.935588,37.344847 L 35.542603,37.385276 L 37.187886,37.405489 L 37.187886,37.405489 L 38.814028,37.385276 L 40.459304,37.344847 L 42.066324,37.263991 L 43.673335,37.162921 L 45.261228,37.041639 L 46.84911,36.859714 L 48.379597,36.677789 L 49.890958,36.455437 L 51.364052,36.192659 L 52.818018,35.950092 L 54.233729,35.62667 L 55.592037,35.303251 L 56.912087,34.939398 L 58.155604,34.57555 L 59.380007,34.171269 L 60.547004,33.766996 L 61.637479,33.342503 L 62.651432,32.877585 L 63.627119,32.392454 L 64.507146,31.907322 L 65.348917,31.401973 L 66.114166,30.856201 L 66.783756,30.330641 L 67.415078,29.764652 L 67.893357,29.218881 L 68.371636,28.652891 L 68.735128,28.06669 L 69.022099,27.5007 L 69.232536,26.9145 L 69.347324,26.328301 L 69.385591,25.721881"
     id="path12"
     style="fill:none;stroke:#aae6ff;stroke-width:0;stroke-miterlimit:4;stroke-dasharray:none" />
  <g
     id="g2040"
     transform="matrix(9.319843,0,0,8.682484,-4.674263,-30.2553)">
    <path
       id="path2027"
       d="M 0.1,1.916 L 0.1,2.74"
       style="fill:none;stroke:#aae6ff;stroke-width:0.001" />
    <path
       id="path2029"
       d="M 3.537,1.916 L 3.537,2.74"
       style="fill:none;stroke:#aae6ff;stroke-width:0.001" />
    <path
       id="path2031"
       d="M 2.6307782,6.6117127 L 3.4278384,6.6117127 L 3.9162228,7.0345223 L 4.4024929,6.6117127 L 5.1551546,6.6117127 L 5.1551546,6.4253128 L 5.6879375,6.7049127 L 5.1551546,6.9867857 L 5.1551546,6.8003858 L 4.4912901,6.8003858 L 4.0473043,7.1277222 L 4.4912901,7.5005221 L 5.1551546,7.5005221 L 5.1551546,7.2686588 L 5.6879375,7.5959952 L 5.1551546,7.8778683 L 5.1551546,7.6891952 L 4.4024929,7.6891952 L 3.9162228,7.2686588 L 3.4278384,7.6891952 L 2.6307782,7.6891952 L 2.6307782,7.8778683 L 2.0979952,7.5959952 L 2.6307782,7.2686588 L 2.6307782,7.5005221 L 3.3390412,7.5005221 L 3.7830271,7.1731856 L 3.3390412,6.8003858 L 2.6307782,6.8003858 L 2.6307782,6.9867857 L 2.0979952,6.7049127 L 2.6307782,6.4253128 L 2.6307782,6.6117127"
       style="fill:black;stroke:none;stroke-width:0.001" />
    <path
       id="path2033"
       d="M 2.6751767,6.6571761 L 3.472237,6.6571761 L 3.9585071,7.0777125 L 4.4468916,6.6571761 L 5.2016674,6.6571761 L 5.2016674,6.4707762 L 5.7323362,6.7526493 L 5.2016674,7.0345223 L 5.2016674,6.8481224 L 4.5356887,6.8481224 L 4.0917028,7.1731856 L 4.5356887,7.5482587 L 5.2016674,7.5482587 L 5.2016674,7.3141222 L 5.7323362,7.6414586 L 5.2016674,7.9233317 L 5.2016674,7.7346586 L 4.4468916,7.7346586 L 3.9585071,7.3141222 L 3.472237,7.7346586 L 2.6751767,7.7346586 L 2.6751767,7.9233317 L 2.1423937,7.6414586 L 2.6751767,7.3141222 L 2.6751767,7.5482587 L 3.3813256,7.5482587 L 3.8253114,7.2209222 L 3.3813256,6.8481224 L 2.6751767,6.8481224 L 2.6751767,7.0345223 L 2.1423937,6.7526493 L 2.6751767,6.4707762 L 2.6751767,6.6571761"
       style="fill:white;stroke:none;stroke-width:0.001" />
  </g>
</svg>
