<?xml version="1.0" encoding="UTF-8" standalone="no"?>
<!-- Created with Inkscape (http://www.inkscape.org/) -->
<svg
   xmlns:dc="http://purl.org/dc/elements/1.1/"
   xmlns:cc="http://web.resource.org/cc/"
   xmlns:rdf="http://www.w3.org/1999/02/22-rdf-syntax-ns#"
   xmlns:svg="http://www.w3.org/2000/svg"
   xmlns="http://www.w3.org/2000/svg"
   xmlns:xlink="http://www.w3.org/1999/xlink"
   xmlns:sodipodi="http://sodipodi.sourceforge.net/DTD/sodipodi-0.dtd"
   xmlns:inkscape="http://www.inkscape.org/namespaces/inkscape"
   id="svg1998"
   sodipodi:version="0.32"
   inkscape:version="0.44"
   width="73.17012"
   height="34.297253"
   version="1.0"
   sodipodi:docbase="/media/LACIE/PFE/gns3-work"
   sodipodi:docname="switch.svg">
  <metadata
     id="metadata2003">
    <rdf:RDF>
      <cc:Work
         rdf:about="">
        <dc:format>image/svg+xml</dc:format>
        <dc:type
           rdf:resource="http://purl.org/dc/dcmitype/StillImage" />
      </cc:Work>
    </rdf:RDF>
  </metadata>
  <defs
     id="defs2001">
    <linearGradient
       inkscape:collect="always"
       id="linearGradient6603">
      <stop
         style="stop-color:#506eaa;stop-opacity:1;"
         offset="0"
         id="stop6605" />
      <stop
         style="stop-color:#506eaa;stop-opacity:0;"
         offset="1"
         id="stop6607" />
    </linearGradient>
    <linearGradient
       inkscape:collect="always"
       id="linearGradient6587">
      <stop
         style="stop-color:#506eaa;stop-opacity:1;"
         offset="0"
         id="stop6589" />
      <stop
         style="stop-color:#506eaa;stop-opacity:0;"
         offset="1"
         id="stop6591" />
    </linearGradient>
    <marker
       inkscape:stockid="Arrow2Lstart"
       orient="auto"
       refY="0"
       refX="0"
       id="Arrow2Lstart"
       style="overflow:visible">
      <path
         id="path11918"
         style="font-size:12px;fill-rule:evenodd;stroke-width:0.625;stroke-linejoin:round"
         d="M 8.7185878,4.0337352 L -2.2072895,0.016013256 L 8.7185884,-4.0017078 C 6.97309,-1.6296469 6.9831476,1.6157441 8.7185878,4.0337352 z "
         transform="matrix(1.1,0,0,1.1,1.1,0)" />
    </marker>
    <marker
       inkscape:stockid="Arrow1Send"
       orient="auto"
       refY="0"
       refX="0"
       id="Arrow1Send"
       style="overflow:visible">
      <path
         id="path11921"
         d="M 0,0 L 5,-5 L -12.5,0 L 5,5 L 0,0 z "
         style="fill-rule:evenodd;stroke:black;stroke-width:1pt;marker-start:none"
         transform="matrix(-0.2,0,0,-0.2,-1.2,0)" />
    </marker>
    <marker
       inkscape:stockid="Arrow1Lstart"
       orient="auto"
       refY="0"
       refX="0"
       id="Arrow1Lstart"
       style="overflow:visible">
      <path
         id="path11936"
         d="M 0,0 L 5,-5 L -12.5,0 L 5,5 L 0,0 z "
         style="fill-rule:evenodd;stroke:black;stroke-width:1pt;marker-start:none"
         transform="matrix(0.8,0,0,0.8,10,0)" />
    </marker>
    <linearGradient
       inkscape:collect="always"
       xlink:href="#linearGradient6587"
       id="linearGradient6593"
       x1="3.95626"
       y1="0.64267641"
       x2="-1.2664427"
       y2="0.62730032"
       gradientUnits="userSpaceOnUse"
       gradientTransform="matrix(1.119123,0,0,1.09281,-7.833718e-3,-0.353953)" />
    <linearGradient
       inkscape:collect="always"
       xlink:href="#linearGradient6603"
       id="linearGradient6609"
       x1="2.2801981"
       y1="1.4519272"
       x2="-0.41311559"
       y2="1.4649135"
       gradientUnits="userSpaceOnUse"
       gradientTransform="matrix(1.119124,0,0,1.09281,-7.83372e-3,-0.353953)" />
  </defs>
  <sodipodi:namedview
     inkscape:window-height="970"
     inkscape:window-width="1390"
     inkscape:pageshadow="2"
     inkscape:pageopacity="0.0"
     guidetolerance="10.0"
     gridtolerance="10.0"
     objecttolerance="10.0"
     borderopacity="1.0"
     bordercolor="#666666"
     pagecolor="#ffffff"
     id="base"
     showguides="true"
     inkscape:guide-bbox="true"
     inkscape:zoom="15.791667"
     inkscape:cx="36.465163"
     inkscape:cy="18.339105"
     inkscape:window-x="0"
     inkscape:window-y="25"
     inkscape:current-layer="g2038" />
  <path
     d="M 72.215977,12.194859 L 72.152013,11.572674 L 72.024094,10.950486 L 71.810869,10.349041 L 71.491041,9.7268529 L 71.064615,9.1254052 L 70.574223,8.5239574 L 69.97722,7.9432491 L 69.294933,7.383283 L 68.527363,6.823314 L 67.674498,6.2840852 L 66.757667,5.7448575 L 65.755567,5.2263692 L 64.668157,4.7078783 L 63.516796,4.2516105 L 62.28015,3.795339 L 60.979544,3.339069 L 59.636288,2.9242772 L 58.207732,2.5509656 L 56.736558,2.177653 L 55.201407,1.8458217 L 53.623617,1.5347276 L 52.003183,1.2443734 L 50.340101,0.99549889 L 48.6557,0.74662414 L 46.928663,0.55996787 L 45.158969,0.3940517 L 43.367969,0.24887474 L 41.576955,0.14517697 L 39.764623,0.06221843 L 37.930988,1.110223e-15 L 36.118648,1.110223e-15 L 36.118648,1.110223e-15 L 34.284998,1.110223e-15 L 32.451346,0.06221843 L 30.66034,0.14517697 L 28.848012,0.24887474 L 27.057003,0.3940517 L 25.30864,0.55996787 L 23.560276,0.74662414 L 21.875879,0.99549889 L 20.212799,1.2443734 L 18.592363,1.5347276 L 17.014575,1.8458217 L 15.479424,2.177653 L 14.008235,2.5509656 L 12.579696,2.9242772 L 11.23644,3.339069 L 9.9358296,3.795339 L 8.6991784,4.2516105 L 7.5478173,4.7078783 L 6.4604197,5.2263692 L 5.458309,5.7448575 L 4.5414836,6.2840852 L 3.6886234,6.823314 L 2.9210483,7.383283 L 2.2600812,7.9432491 L 1.6417578,8.5239574 L 1.1513624,9.1254052 L 0.72493245,9.7268529 L 0.40510877,10.349041 L 0.1705731,10.950486 L 0.0426439,11.572674 L 0,12.194859 L 0,12.194859 L 0.0426439,12.817046 L 0.1705731,13.418493 L 0.40510877,14.040677 L 0.72493245,14.621388 L 1.1513624,15.243573 L 1.6417578,15.824284 L 2.2600812,16.425729 L 2.9210483,17.006438 L 3.6886234,17.566404 L 4.5414836,18.084893 L 5.458309,18.62412 L 6.4604197,19.163352 L 7.5478173,19.640362 L 8.6991784,20.11737 L 9.9358296,20.59438 L 11.23644,21.029911 L 12.579696,21.444704 L 14.008235,21.818017 L 15.479424,22.191327 L 17.014575,22.523157 L 18.592363,22.854994 L 20.212799,23.124605 L 21.875879,23.394222 L 23.560276,23.622356 L 25.30864,23.809012 L 27.057003,23.97493 L 28.848012,24.120105 L 30.66034,24.223802 L 32.451346,24.306763 L 34.284998,24.368979 L 36.118648,24.368979 L 36.118648,24.368979 L 37.930988,24.368979 L 39.764623,24.306763 L 41.576955,24.223802 L 43.367969,24.120105 L 45.158969,23.97493 L 46.928663,23.809012 L 48.6557,23.622356 L 50.340101,23.394222 L 52.003183,23.124605 L 53.623617,22.854994 L 55.201407,22.523157 L 56.736558,22.191327 L 58.207732,21.818017 L 59.636288,21.444704 L 60.979544,21.029911 L 62.28015,20.59438 L 63.516796,20.11737 L 64.668157,19.640362 L 65.755567,19.163352 L 66.757667,18.62412 L 67.674498,18.084893 L 68.527363,17.566404 L 69.294933,17.006438 L 69.97722,16.425729 L 70.574223,15.824284 L 71.064615,15.243573 L 71.491041,14.621388 L 71.810869,14.040677 L 72.024094,13.418493 L 72.152013,12.817046 L 72.215977,12.194859"
     id="path10"
     style="fill:none;fill-opacity:1;stroke:none;stroke-width:0.001" />
  <path
     d="M 71.789221,12.7722 L 71.746573,12.109502 L 71.618643,11.490987 L 71.384115,10.850379 L 71.064291,10.209772 L 70.659186,9.5912537 L 70.126151,8.9506458 L 69.593118,8.3542169 L 68.88952,7.7357005 L 68.143274,7.1613629 L 67.290416,6.5649354 L 66.352278,6.0347774 L 65.371503,5.4825287 L 64.284117,4.9523721 L 63.154084,4.466394 L 61.938768,3.9583255 L 60.638171,3.5386169 L 59.273596,3.0968191 L 57.887717,2.6771106 L 56.416544,2.3015809 L 54.902732,1.9260522 L 53.324949,1.6167933 L 51.704529,1.3075365 L 50.062791,1.064547 L 48.378405,0.79946809 L 46.672704,0.6006585 L 44.903038,0.4239396 L 43.133358,0.26931009 L 41.342374,0.1588606 L 39.551376,0.07050048 L 37.717746,0.02632169 L 35.905437,0.00423108 L 35.905437,0.00423108 L 34.0718,0.02632169 L 32.280808,0.07050048 L 30.468497,0.1588606 L 28.677505,0.26931009 L 26.90784,0.4239396 L 25.159489,0.6006585 L 23.43246,0.79946809 L 21.748078,1.064547 L 20.085016,1.3075365 L 18.485916,1.6167933 L 16.908137,1.9260522 L 15.394324,2.3015809 L 13.944477,2.6771106 L 12.53727,3.0968191 L 11.172704,3.5386169 L 9.8934225,3.9583255 L 8.6781065,4.466394 L 7.5267561,4.9523721 L 6.4393699,5.4825287 L 5.4372687,6.0347774 L 4.5417727,6.5649354 L 3.6889203,7.1613629 L 2.9213525,7.7357005 L 2.2603912,8.3542169 L 1.6633948,8.9506458 L 1.1516828,9.5912537 L 0.74657778,10.209772 L 0.42675839,10.850379 L 0.1922235,11.490987 L 0.0642955,12.109502 L 0.0003309,12.7722 L 0.0003309,12.7722 L 0.0642955,13.434902 L 0.1922235,14.075507 L 0.42675839,14.716113 L 0.74657778,15.334632 L 1.1516828,15.97524 L 1.6633948,16.593759 L 2.2603912,17.190184 L 2.9213525,17.808702 L 3.6889203,18.383041 L 4.5417727,18.979466 L 5.4372687,19.531716 L 6.4393699,20.061874 L 7.5267561,20.592031 L 8.6781065,21.100099 L 9.8934225,21.563989 L 11.172704,22.005782 L 12.53727,22.447585 L 13.944477,22.845202 L 15.394324,23.242824 L 16.908137,23.596261 L 18.485916,23.949699 L 20.085016,24.214779 L 21.748078,24.501946 L 23.43246,24.744934 L 25.159489,24.943745 L 26.90784,25.142553 L 28.677505,25.275091 L 30.468497,25.385541 L 32.280808,25.473903 L 34.0718,25.518084 L 35.905437,25.540174 L 35.905437,25.540174 L 37.717746,25.518084 L 39.551376,25.473903 L 41.342374,25.385541 L 43.133358,25.275091 L 44.903038,25.142553 L 46.672704,24.943745 L 48.378405,24.744934 L 50.062791,24.501946 L 51.704529,24.214779 L 53.324949,23.949699 L 54.902732,23.596261 L 56.416544,23.242824 L 57.887717,22.845202 L 59.273596,22.447585 L 60.638171,22.005782 L 61.938768,21.563989 L 63.154084,21.100099 L 64.284117,20.592031 L 65.371503,20.061874 L 66.352278,19.531716 L 67.290416,18.979466 L 68.143274,18.383041 L 68.88952,17.808702 L 69.593118,17.190184 L 70.126151,16.593759 L 70.659186,15.97524 L 71.064291,15.334632 L 71.384115,14.716113 L 71.618643,14.075507 L 71.746573,13.434902 L 71.789221,12.7722"
     id="path12"
     style="fill:none;stroke:#aae6ff;stroke-width:0;stroke-miterlimit:4;stroke-dasharray:none" />
  <rect
     style="opacity:1;fill:#1e5a5a;fill-opacity:1;fill-rule:evenodd;stroke:#1e6464;stroke-width:1;stroke-linecap:round;stroke-linejoin:round;stroke-miterlimit:4;stroke-dasharray:none;stroke-dashoffset:0;stroke-opacity:1"
     id="rect1893"
     width="21.403694"
     height="0"
     x="35.464787"
     y="23.037306"
     rx="13.804749" />
  <g
     id="g2038"
     transform="matrix(13.43326,0,0,13.79219,-0.882654,7.049644)">
    <path
       id="path1902"
       d="M 4.2452426,0.83164444 L 5.5079908,-0.36073013 L 1.4279105,-0.36073013 L 0.16852947,0.83164444 L 4.2452426,0.83164444"
       style="fill:white;fill-opacity:1;stroke:white;stroke-width:0.00111217;stroke-opacity:1" />
    <path
       id="path13703"
       d="M 0.32514222,0.83756414 L 0.32514222,1.9755825 L 4.2405822,1.9755825 L 4.2405822,0.83756414 L 0.32514222,0.83756414"
       style="fill:black;fill-opacity:0.39215686;stroke:none;stroke-width:0.001" />
    <path
       id="path14592"
       d="M 4.2400562,1.0042766 L 5.4573954,-0.13975529 L 5.4573954,0.83087439 L 4.2400562,1.9749062 L 4.2400562,1.0042766"
       style="fill:black;fill-opacity:0.39215686;stroke:none;stroke-width:0.001" />
    <path
       id="path2005"
       d="M 0.17868718,0.82918688 L 0.17868718,1.8323859 L 4.2433424,1.8323859 L 4.2433424,0.82918688 L 0.17868718,0.82918688"
       style="fill:url(#linearGradient6609);fill-opacity:1;stroke:none;stroke-width:0.001" />
    <path
       id="path2007"
       d="M 0.17868718,0.82918688 L 0.17868718,1.8323859 L 4.2433424,1.8323859 L 4.2433424,0.82918688 L 0.17868718,0.82918688"
       style="opacity:1;fill:#506eaa;fill-opacity:1;stroke:#aae6ff;stroke-width:0.00110589" />
    <path
       id="path2009"
       d="M 4.2433424,0.82918688 L 5.5023559,-0.35323304 L 5.5023559,0.64996614 L 4.2433424,1.8323859 L 4.2433424,0.82918688"
       style="fill:#506496;fill-opacity:1;stroke:none;stroke-width:0.001" />
    <path
       id="path2011"
       d="M 4.2433424,0.82918688 L 5.5023559,-0.35323304 L 5.5023559,0.64996614 L 4.2433424,1.8323859 L 4.2433424,0.82918688"
       style="fill:none;stroke:#aae6ff;stroke-width:0.00110589" />
    <path
       id="path2013"
       d="M 4.2433424,0.82918688 L 5.5023559,-0.35323304 L 1.4343433,-0.35323304 L 0.17868718,0.82918688 L 4.2433424,0.82918688"
       style="fill:url(#linearGradient6593);fill-opacity:1;stroke:#aae6ff;stroke-width:0.00110589;stroke-opacity:1" />
    <path
       id="path2015"
       d="M 4.2433424,0.82918688 L 5.5023559,-0.35323304 L 1.4343433,-0.35323304 L 0.17868718,0.82918688 L 4.2433424,0.82918688"
       style="fill:none;stroke:#5097b4;stroke-width:0.00110589;stroke-opacity:1" />
    <path
       id="path2017"
       d="M 2.7280497,0.2565547 L 2.5803253,0.39752712 L 3.6143952,0.39752712 L 3.46779,0.57784069 L 4.3172044,0.36255722 L 3.8740316,0.18442926 L 3.7621194,0.2565547 L 2.7280497,0.2565547"
       style="fill:black;stroke:none;stroke-width:0.001" />
    <path
       id="path2019"
       d="M 3.2450845,-0.21007499 L 3.0973602,-0.066916945 L 4.1325492,-0.066916945 L 3.9478938,0.11230383 L 4.8342393,-0.13685677 L 4.3541355,-0.31826313 L 4.2825116,-0.21007499 L 3.2450845,-0.21007499"
       style="fill:black;stroke:none;stroke-width:0.001" />
    <path
       id="path2021"
       d="M 2.3576199,0.64996614 L 2.5087015,0.50571527 L 1.4343433,0.50571527 L 1.6201178,0.3264945 L 0.76734596,0.54068518 L 1.212757,0.72099875 L 1.2877382,0.64996614 L 2.3576199,0.64996614"
       style="fill:black;stroke:none;stroke-width:0.001" />
    <path
       id="path2023"
       d="M 2.839962,0.14618093 L 2.9876862,0.0063012957 L 1.9524974,0.0063012957 L 2.1382717,-0.17401228 L 1.249688,0.076241116 L 1.7297918,0.2565547 L 1.8036539,0.14618093 L 2.839962,0.14618093"
       style="fill:black;stroke:none;stroke-width:0.001" />
    <path
       id="path2025"
       d="M 2.7649807,0.28933897 L 2.6172564,0.43358984 L 3.6524454,0.43358984 L 3.5047211,0.6128106 L 4.3541355,0.39752712 L 3.9098437,0.21939916 L 3.8001697,0.28933897 L 2.7649807,0.28933897"
       style="fill:white;stroke:none;stroke-width:0.001" />
    <path
       id="path2027"
       d="M 3.2831347,-0.17401228 L 3.1342913,-0.031947039 L 4.1694802,-0.031947039 L 3.9848249,0.14618093 L 4.8722896,-0.10407247 L 4.3921858,-0.28220043 L 4.3172044,-0.17401228 L 3.2831347,-0.17401228"
       style="fill:white;stroke:none;stroke-width:0.001" />
    <path
       id="path2029"
       d="M 2.3945509,0.68493604 L 2.5422753,0.54068518 L 1.4723935,0.54068518 L 1.6548106,0.36255722 L 0.80539614,0.57784069 L 1.249688,0.75706144 L 1.322431,0.68493604 L 2.3945509,0.68493604"
       style="fill:white;stroke:none;stroke-width:0.001" />
    <path
       id="path2031"
       d="M 2.8746548,0.18442926 L 3.0246173,0.040178387 L 1.9883093,0.040178387 L 2.1740837,-0.13685677 L 1.2877382,0.11230383 L 1.767842,0.28933897 L 1.839466,0.18442926 L 2.8746548,0.18442926"
       style="fill:white;stroke:none;stroke-width:0.001" />
  </g>
</svg>
