<?xml version="1.0" encoding="UTF-8" standalone="no"?>
<!-- Created with Inkscape (http://www.inkscape.org/) -->
<svg
   xmlns:dc="http://purl.org/dc/elements/1.1/"
   xmlns:cc="http://web.resource.org/cc/"
   xmlns:rdf="http://www.w3.org/1999/02/22-rdf-syntax-ns#"
   xmlns:svg="http://www.w3.org/2000/svg"
   xmlns="http://www.w3.org/2000/svg"
   xmlns:xlink="http://www.w3.org/1999/xlink"
   xmlns:sodipodi="http://sodipodi.sourceforge.net/DTD/sodipodi-0.dtd"
   xmlns:inkscape="http://www.inkscape.org/namespaces/inkscape"
   id="svg1998"
   sodipodi:version="0.32"
   inkscape:version="0.45"
   width="71.851372"
   height="32.285366"
   version="1.0"
   sodipodi:docbase="/home/grossmj/workspace/gns3/svg/symbols"
   sodipodi:docname="switch.svg"
   inkscape:output_extension="org.inkscape.output.svg.inkscape"
   sodipodi:modified="true">
  <metadata
     id="metadata2003">
    <rdf:RDF>
      <cc:Work
         rdf:about="">
        <dc:format>image/svg+xml</dc:format>
        <dc:type
           rdf:resource="http://purl.org/dc/dcmitype/StillImage" />
        <dc:title>Switch</dc:title>
        <dc:creator>
          <cc:Agent>
            <dc:title>Jeremy Grossmann</dc:title>
          </cc:Agent>
        </dc:creator>
        <dc:publisher>
          <cc:Agent>
            <dc:title>GNS-3</dc:title>
          </cc:Agent>
        </dc:publisher>
        <dc:description>Created for the GNS-3 project (www.gns3.net)</dc:description>
        <cc:license
           rdf:resource="http://creativecommons.org/licenses/GPL/2.0/" />
      </cc:Work>
      <cc:License
         rdf:about="http://creativecommons.org/licenses/GPL/2.0/">
        <cc:permits
           rdf:resource="http://web.resource.org/cc/Reproduction" />
        <cc:permits
           rdf:resource="http://web.resource.org/cc/Distribution" />
        <cc:requires
           rdf:resource="http://web.resource.org/cc/Notice" />
        <cc:permits
           rdf:resource="http://web.resource.org/cc/DerivativeWorks" />
        <cc:requires
           rdf:resource="http://web.resource.org/cc/ShareAlike" />
        <cc:requires
           rdf:resource="http://web.resource.org/cc/SourceCode" />
      </cc:License>
    </rdf:RDF>
  </metadata>
  <defs
     id="defs2001">
    <linearGradient
       inkscape:collect="always"
       id="linearGradient6603">
      <stop
         style="stop-color:#506eaa;stop-opacity:1;"
         offset="0"
         id="stop6605" />
      <stop
         style="stop-color:#506eaa;stop-opacity:0;"
         offset="1"
         id="stop6607" />
    </linearGradient>
    <marker
       inkscape:stockid="Arrow2Lstart"
       orient="auto"
       refY="0"
       refX="0"
       id="Arrow2Lstart"
       style="overflow:visible">
      <path
         id="path11918"
         style="font-size:12px;fill-rule:evenodd;stroke-width:0.625;stroke-linejoin:round"
         d="M 8.7185878,4.0337352 L -2.2072895,0.016013256 L 8.7185884,-4.0017078 C 6.97309,-1.6296469 6.9831476,1.6157441 8.7185878,4.0337352 z "
         transform="matrix(1.1,0,0,1.1,1.1,0)" />
    </marker>
    <marker
       inkscape:stockid="Arrow1Send"
       orient="auto"
       refY="0"
       refX="0"
       id="Arrow1Send"
       style="overflow:visible">
      <path
         id="path11921"
         d="M 0,0 L 5,-5 L -12.5,0 L 5,5 L 0,0 z "
         style="fill-rule:evenodd;stroke:black;stroke-width:1pt;marker-start:none"
         transform="matrix(-0.2,0,0,-0.2,-1.2,0)" />
    </marker>
    <marker
       inkscape:stockid="Arrow1Lstart"
       orient="auto"
       refY="0"
       refX="0"
       id="Arrow1Lstart"
       style="overflow:visible">
      <path
         id="path11936"
         d="M 0,0 L 5,-5 L -12.5,0 L 5,5 L 0,0 z "
         style="fill-rule:evenodd;stroke:black;stroke-width:1pt;marker-start:none"
         transform="matrix(0.8,0,0,0.8,10,0)" />
    </marker>
    <linearGradient
       inkscape:collect="always"
       xlink:href="#linearGradient6603"
       id="linearGradient6609"
       x1="2.2801981"
       y1="1.4519272"
       x2="-0.41311559"
       y2="1.4649135"
       gradientUnits="userSpaceOnUse"
       gradientTransform="matrix(1.119124,0,0,1.09281,-7.83372e-3,-0.353953)" />
  </defs>
  <sodipodi:namedview
     inkscape:window-height="953"
     inkscape:window-width="1280"
     inkscape:pageshadow="2"
     inkscape:pageopacity="0.0"
     guidetolerance="10.0"
     gridtolerance="10.0"
     objecttolerance="10.0"
     borderopacity="1.0"
     bordercolor="#666666"
     pagecolor="#ffffff"
     id="base"
     showguides="true"
     inkscape:guide-bbox="true"
     inkscape:zoom="15.791667"
     inkscape:cx="36.465163"
     inkscape:cy="18.307443"
     inkscape:window-x="0"
     inkscape:window-y="25"
     inkscape:current-layer="g2038" />
  <path
     d="M 70.897231,10.182973 L 70.833267,9.5607885 L 70.705348,8.9386005 L 70.492123,8.3371555 L 70.172295,7.7149674 L 69.745869,7.1135197 L 69.255477,6.5120719 L 68.658474,5.9313636 L 67.976187,5.3713975 L 67.208617,4.8114285 L 66.355752,4.2721997 L 65.438921,3.732972 L 64.436821,3.2144837 L 63.349411,2.6959928 L 62.19805,2.239725 L 60.961404,1.7834535 L 59.660798,1.3271835 L 58.317542,0.91239169 L 56.888986,0.53908009 L 55.417812,0.16576749 L 53.882661,-0.16606381 L 52.304871,-0.47715791 L 50.684437,-0.76751211 L 49.021355,-1.0163866 L 47.336954,-1.2652614 L 45.609917,-1.4519176 L 43.840223,-1.6178338 L 42.049223,-1.7630108 L 40.258209,-1.8667085 L 38.445877,-1.9496671 L 36.612242,-2.0118855 L 34.799902,-2.0118855 L 34.799902,-2.0118855 L 32.966252,-2.0118855 L 31.1326,-1.9496671 L 29.341594,-1.8667085 L 27.529266,-1.7630108 L 25.738257,-1.6178338 L 23.989894,-1.4519176 L 22.24153,-1.2652614 L 20.557133,-1.0163866 L 18.894053,-0.76751211 L 17.273617,-0.47715791 L 15.695829,-0.16606381 L 14.160678,0.16576749 L 12.689489,0.53908009 L 11.26095,0.91239169 L 9.9176938,1.3271835 L 8.6170834,1.7834535 L 7.3804322,2.239725 L 6.2290711,2.6959928 L 5.1416735,3.2144837 L 4.1395628,3.732972 L 3.2227374,4.2721997 L 2.3698772,4.8114285 L 1.6023021,5.3713975 L 0.94133501,5.9313636 L 0.32301161,6.5120719 L -0.16738379,7.1135197 L -0.59381374,7.7149674 L -0.91363742,8.3371555 L -1.1481731,8.9386005 L -1.2761023,9.5607885 L -1.3187462,10.182973 L -1.3187462,10.182973 L -1.2761023,10.80516 L -1.1481731,11.406607 L -0.91363742,12.028791 L -0.59381374,12.609502 L -0.16738379,13.231687 L 0.32301161,13.812398 L 0.94133501,14.413843 L 1.6023021,14.994552 L 2.3698772,15.554518 L 3.2227374,16.073007 L 4.1395628,16.612234 L 5.1416735,17.151466 L 6.2290711,17.628476 L 7.3804322,18.105484 L 8.6170834,18.582494 L 9.9176938,19.018025 L 11.26095,19.432818 L 12.689489,19.806131 L 14.160678,20.179441 L 15.695829,20.511271 L 17.273617,20.843108 L 18.894053,21.112719 L 20.557133,21.382336 L 22.24153,21.61047 L 23.989894,21.797126 L 25.738257,21.963044 L 27.529266,22.108219 L 29.341594,22.211916 L 31.1326,22.294877 L 32.966252,22.357093 L 34.799902,22.357093 L 34.799902,22.357093 L 36.612242,22.357093 L 38.445877,22.294877 L 40.258209,22.211916 L 42.049223,22.108219 L 43.840223,21.963044 L 45.609917,21.797126 L 47.336954,21.61047 L 49.021355,21.382336 L 50.684437,21.112719 L 52.304871,20.843108 L 53.882661,20.511271 L 55.417812,20.179441 L 56.888986,19.806131 L 58.317542,19.432818 L 59.660798,19.018025 L 60.961404,18.582494 L 62.19805,18.105484 L 63.349411,17.628476 L 64.436821,17.151466 L 65.438921,16.612234 L 66.355752,16.073007 L 67.208617,15.554518 L 67.976187,14.994552 L 68.658474,14.413843 L 69.255477,13.812398 L 69.745869,13.231687 L 70.172295,12.609502 L 70.492123,12.028791 L 70.705348,11.406607 L 70.833267,10.80516 L 70.897231,10.182973"
     id="path10"
     style="fill:none;fill-opacity:1;stroke:none;stroke-width:0.001" />
  <path
     d="M 70.470475,10.760314 L 70.427827,10.097616 L 70.299897,9.4791015 L 70.065369,8.8384935 L 69.745545,8.1978865 L 69.34044,7.5793682 L 68.807405,6.9387603 L 68.274372,6.3423314 L 67.570774,5.723815 L 66.824528,5.1494774 L 65.97167,4.5530499 L 65.033532,4.0228919 L 64.052757,3.4706432 L 62.965371,2.9404866 L 61.835338,2.4545085 L 60.620022,1.94644 L 59.319425,1.5267314 L 57.95485,1.0849336 L 56.568971,0.66522509 L 55.097798,0.28969539 L 53.583986,-0.085833308 L 52.006203,-0.39509221 L 50.385783,-0.70434901 L 48.744045,-0.94733851 L 47.059659,-1.2124174 L 45.353958,-1.411227 L 43.584292,-1.5879459 L 41.814612,-1.7425754 L 40.023628,-1.8530249 L 38.23263,-1.941385 L 36.399,-1.9855638 L 34.586691,-2.0076544 L 34.586691,-2.0076544 L 32.753054,-1.9855638 L 30.962062,-1.941385 L 29.149751,-1.8530249 L 27.358759,-1.7425754 L 25.589094,-1.5879459 L 23.840743,-1.411227 L 22.113714,-1.2124174 L 20.429332,-0.94733851 L 18.76627,-0.70434901 L 17.16717,-0.39509221 L 15.589391,-0.085833308 L 14.075578,0.28969539 L 12.625731,0.66522509 L 11.218524,1.0849336 L 9.8539578,1.5267314 L 8.5746763,1.94644 L 7.3593603,2.4545085 L 6.2080099,2.9404866 L 5.1206237,3.4706432 L 4.1185225,4.0228919 L 3.2230265,4.5530499 L 2.3701741,5.1494774 L 1.6026063,5.723815 L 0.94164501,6.3423314 L 0.34464861,6.9387603 L -0.16706339,7.5793682 L -0.57216841,8.1978865 L -0.8919878,8.8384935 L -1.1265227,9.4791015 L -1.2544507,10.097616 L -1.3184153,10.760314 L -1.3184153,10.760314 L -1.2544507,11.423016 L -1.1265227,12.063621 L -0.8919878,12.704227 L -0.57216841,13.322746 L -0.16706339,13.963354 L 0.34464861,14.581873 L 0.94164501,15.178298 L 1.6026063,15.796816 L 2.3701741,16.371155 L 3.2230265,16.96758 L 4.1185225,17.51983 L 5.1206237,18.049988 L 6.2080099,18.580145 L 7.3593603,19.088213 L 8.5746763,19.552103 L 9.8539578,19.993896 L 11.218524,20.435699 L 12.625731,20.833316 L 14.075578,21.230938 L 15.589391,21.584375 L 17.16717,21.937813 L 18.76627,22.202893 L 20.429332,22.49006 L 22.113714,22.733048 L 23.840743,22.931859 L 25.589094,23.130667 L 27.358759,23.263205 L 29.149751,23.373655 L 30.962062,23.462017 L 32.753054,23.506198 L 34.586691,23.528288 L 34.586691,23.528288 L 36.399,23.506198 L 38.23263,23.462017 L 40.023628,23.373655 L 41.814612,23.263205 L 43.584292,23.130667 L 45.353958,22.931859 L 47.059659,22.733048 L 48.744045,22.49006 L 50.385783,22.202893 L 52.006203,21.937813 L 53.583986,21.584375 L 55.097798,21.230938 L 56.568971,20.833316 L 57.95485,20.435699 L 59.319425,19.993896 L 60.620022,19.552103 L 61.835338,19.088213 L 62.965371,18.580145 L 64.052757,18.049988 L 65.033532,17.51983 L 65.97167,16.96758 L 66.824528,16.371155 L 67.570774,15.796816 L 68.274372,15.178298 L 68.807405,14.581873 L 69.34044,13.963354 L 69.745545,13.322746 L 70.065369,12.704227 L 70.299897,12.063621 L 70.427827,11.423016 L 70.470475,10.760314"
     id="path12"
     style="fill:none;stroke:#aae6ff;stroke-width:0;stroke-miterlimit:4;stroke-dasharray:none" />
  <rect
     style="opacity:1;fill:#1e5a5a;fill-opacity:1;fill-rule:evenodd;stroke:#1e6464;stroke-width:1;stroke-linecap:round;stroke-linejoin:round;stroke-miterlimit:4;stroke-dasharray:none;stroke-dashoffset:0;stroke-opacity:1"
     id="rect1893"
     width="21.403694"
     height="0"
     x="34.146042"
     y="21.025421"
     rx="13.804749" />
  <g
     id="g2038"
     transform="matrix(13.43326,0,0,13.79219,-2.2014,5.037758)">
    <path
       id="path1902"
       d="M 4.2452426,0.83164444 L 5.5079908,-0.36073013 L 1.4279105,-0.36073013 L 0.16852947,0.83164444 L 4.2452426,0.83164444"
       style="fill:white;fill-opacity:1;stroke:white;stroke-width:0.00111217;stroke-opacity:1" />
    <path
       id="path13703"
       d="M 0.32514222,0.83756414 L 0.32514222,1.9755825 L 4.2405822,1.9755825 L 4.2405822,0.83756414 L 0.32514222,0.83756414"
       style="fill:black;fill-opacity:0.39215686;stroke:none;stroke-width:0.001" />
    <path
       id="path14592"
       d="M 4.2400562,1.0042766 L 5.4573954,-0.13975529 L 5.4573954,0.83087439 L 4.2400562,1.9749062 L 4.2400562,1.0042766"
       style="fill:black;fill-opacity:0.39215686;stroke:none;stroke-width:0.001" />
    <path
       id="path2005"
       d="M 0.17868718,0.82918688 L 0.17868718,1.8323859 L 4.2433424,1.8323859 L 4.2433424,0.82918688 L 0.17868718,0.82918688"
       style="fill:url(#linearGradient6609);fill-opacity:1;stroke:none;stroke-width:0.001" />
    <path
       id="path2007"
       d="M 0.17868718,0.82918688 L 0.17868718,1.8323859 L 4.2433424,1.8323859 L 4.2433424,0.82918688 L 0.17868718,0.82918688"
       style="opacity:1;fill:#506eaa;fill-opacity:1;stroke:#aae6ff;stroke-width:0.00110589" />
    <path
       id="path2009"
       d="M 4.2433424,0.82918688 L 5.5023559,-0.35323304 L 5.5023559,0.64996614 L 4.2433424,1.8323859 L 4.2433424,0.82918688"
       style="fill:#506496;fill-opacity:1;stroke:none;stroke-width:0.001" />
    <path
       id="path2011"
       d="M 4.2433424,0.82918688 L 5.5023559,-0.35323304 L 5.5023559,0.64996614 L 4.2433424,1.8323859 L 4.2433424,0.82918688"
       style="fill:none;stroke:#aae6ff;stroke-width:0.00110589" />
    <path
       id="path2013"
       d="M 4.2433424,0.82918688 L 5.5023559,-0.35323304 L 1.4343433,-0.35323304 L 0.17868718,0.82918688 L 4.2433424,0.82918688"
       style="fill:#506eaa;fill-opacity:1;stroke:#aae6ff;stroke-width:0.00110589;stroke-opacity:1" />
    <path
       id="path2015"
       d="M 4.2433424,0.82918688 L 5.5023559,-0.35323304 L 1.4343433,-0.35323304 L 0.17868718,0.82918688 L 4.2433424,0.82918688"
       style="fill:none;stroke:#5097b4;stroke-width:0.00110589;stroke-opacity:1" />
    <path
       id="path2017"
       d="M 2.7280497,0.2565547 L 2.5803253,0.39752712 L 3.6143952,0.39752712 L 3.46779,0.57784069 L 4.3172044,0.36255722 L 3.8740316,0.18442926 L 3.7621194,0.2565547 L 2.7280497,0.2565547"
       style="fill:black;stroke:none;stroke-width:0.001" />
    <path
       id="path2019"
       d="M 3.2450845,-0.21007499 L 3.0973602,-0.066916945 L 4.1325492,-0.066916945 L 3.9478938,0.11230383 L 4.8342393,-0.13685677 L 4.3541355,-0.31826313 L 4.2825116,-0.21007499 L 3.2450845,-0.21007499"
       style="fill:black;stroke:none;stroke-width:0.001" />
    <path
       id="path2021"
       d="M 2.3576199,0.64996614 L 2.5087015,0.50571527 L 1.4343433,0.50571527 L 1.6201178,0.3264945 L 0.76734596,0.54068518 L 1.212757,0.72099875 L 1.2877382,0.64996614 L 2.3576199,0.64996614"
       style="fill:black;stroke:none;stroke-width:0.001" />
    <path
       id="path2023"
       d="M 2.839962,0.14618093 L 2.9876862,0.0063012957 L 1.9524974,0.0063012957 L 2.1382717,-0.17401228 L 1.249688,0.076241116 L 1.7297918,0.2565547 L 1.8036539,0.14618093 L 2.839962,0.14618093"
       style="fill:black;stroke:none;stroke-width:0.001" />
    <path
       id="path2025"
       d="M 2.7649807,0.28933897 L 2.6172564,0.43358984 L 3.6524454,0.43358984 L 3.5047211,0.6128106 L 4.3541355,0.39752712 L 3.9098437,0.21939916 L 3.8001697,0.28933897 L 2.7649807,0.28933897"
       style="fill:white;stroke:none;stroke-width:0.001" />
    <path
       id="path2027"
       d="M 3.2831347,-0.17401228 L 3.1342913,-0.031947039 L 4.1694802,-0.031947039 L 3.9848249,0.14618093 L 4.8722896,-0.10407247 L 4.3921858,-0.28220043 L 4.3172044,-0.17401228 L 3.2831347,-0.17401228"
       style="fill:white;stroke:none;stroke-width:0.001" />
    <path
       id="path2029"
       d="M 2.3945509,0.68493604 L 2.5422753,0.54068518 L 1.4723935,0.54068518 L 1.6548106,0.36255722 L 0.80539614,0.57784069 L 1.249688,0.75706144 L 1.322431,0.68493604 L 2.3945509,0.68493604"
       style="fill:white;stroke:none;stroke-width:0.001" />
    <path
       id="path2031"
       d="M 2.8746548,0.18442926 L 3.0246173,0.040178387 L 1.9883093,0.040178387 L 2.1740837,-0.13685677 L 1.2877382,0.11230383 L 1.767842,0.28933897 L 1.839466,0.18442926 L 2.8746548,0.18442926"
       style="fill:white;stroke:none;stroke-width:0.001" />
  </g>
</svg>
