<?xml version="1.0" encoding="UTF-8" standalone="no"?>
<!-- Created with Inkscape (http://www.inkscape.org/) -->
<svg
   xmlns:dc="http://purl.org/dc/elements/1.1/"
   xmlns:cc="http://web.resource.org/cc/"
   xmlns:rdf="http://www.w3.org/1999/02/22-rdf-syntax-ns#"
   xmlns:svg="http://www.w3.org/2000/svg"
   xmlns="http://www.w3.org/2000/svg"
   xmlns:xlink="http://www.w3.org/1999/xlink"
   xmlns:sodipodi="http://sodipodi.sourceforge.net/DTD/sodipodi-0.dtd"
   xmlns:inkscape="http://www.inkscape.org/namespaces/inkscape"
   height="71.430756"
   id="Andysvg"
   inkscape:version="0.44"
   sodipodi:docbase="/media/LACIE/PFE/gns3-work/svg"
   sodipodi:docname="gnome-fs-client.svg"
   sodipodi:version="0.32"
   version="1.0"
   width="80.545036"
   x="0.00000000"
   y="0.00000000">
  <metadata
     id="metadata3">
    <rdf:RDF>
      <cc:Work
         rdf:about="">
        <dc:title>Etiquette Icons</dc:title>
        <dc:description />
        <dc:subject>
          <rdf:Bag>
            <rdf:li>hash</rdf:li>
            <rdf:li />
            <rdf:li>filesystem</rdf:li>
            <rdf:li>hardware</rdf:li>
            <rdf:li>computer</rdf:li>
            <rdf:li>icons</rdf:li>
          </rdf:Bag>
        </dc:subject>
        <dc:publisher>
          <cc:Agent
             rdf:about="http://www.openclipart.org">
            <dc:title>Andy Fitzsimon</dc:title>
          </cc:Agent>
        </dc:publisher>
        <dc:creator>
          <cc:Agent>
            <dc:title>Andy Fitzsimon</dc:title>
          </cc:Agent>
        </dc:creator>
        <dc:rights>
          <cc:Agent>
            <dc:title>Andy Fitzsimon</dc:title>
          </cc:Agent>
        </dc:rights>
        <dc:date />
        <dc:format>image/svg+xml</dc:format>
        <dc:type
           rdf:resource="http://purl.org/dc/dcmitype/StillImage" />
        <cc:license
           rdf:resource="http://web.resource.org/cc/PublicDomain" />
        <dc:language>en</dc:language>
      </cc:Work>
      <cc:License
         rdf:about="http://web.resource.org/cc/PublicDomain">
        <cc:permits
           rdf:resource="http://web.resource.org/cc/Reproduction" />
        <cc:permits
           rdf:resource="http://web.resource.org/cc/Distribution" />
        <cc:permits
           rdf:resource="http://web.resource.org/cc/DerivativeWorks" />
      </cc:License>
    </rdf:RDF>
  </metadata>
  <defs
     id="defs3">
    <linearGradient
       id="linearGradient1806">
      <stop
         id="stop1807"
         offset="0.0000000"
         style="stop-color:#000000;stop-opacity:0.35051546;" />
      <stop
         id="stop3276"
         offset="0.64999998"
         style="stop-color:#000000;stop-opacity:0.13402061;" />
      <stop
         id="stop1808"
         offset="1.0000000"
         style="stop-color:#000000;stop-opacity:0.0000000;" />
    </linearGradient>
    <radialGradient
       cx="0.50522649"
       cy="0.54545456"
       fx="0.51611376"
       fy="0.56148684"
       id="radialGradient1977"
       r="0.46065515"
       xlink:href="#linearGradient1806" />
    <linearGradient
       id="linearGradient893">
      <stop
         id="stop895"
         offset="0"
         style="stop-color:#000;stop-opacity:1;" />
      <stop
         id="stop896"
         offset="1"
         style="stop-color:#fff;stop-opacity:1;" />
    </linearGradient>
    <linearGradient
       id="linearGradient1317">
      <stop
         id="stop1318"
         offset="0.00000000"
         style="stop-color:#000000;stop-opacity:0.52892560;" />
      <stop
         id="stop1320"
         offset="0.50000000"
         style="stop-color:#000000;stop-opacity:0.17355372;" />
      <stop
         id="stop1319"
         offset="1.0000000"
         style="stop-color:#000000;stop-opacity:0.00000000;" />
    </linearGradient>
    <linearGradient
       id="linearGradient1133">
      <stop
         id="stop1134"
         offset="0.0000000"
         style="stop-color:#9db8d2;stop-opacity:1.0000000;" />
      <stop
         id="stop1136"
         offset="0.76209301"
         style="stop-color:#4b6983;stop-opacity:1.0000000;" />
      <stop
         id="stop1135"
         offset="1.0000000"
         style="stop-color:#314e6c;stop-opacity:1.0000000;" />
    </linearGradient>
    <linearGradient
       id="linearGradient1098">
      <stop
         id="stop1099"
         offset="0.00000000"
         style="stop-color:#ffffff;stop-opacity:1.0000000;" />
      <stop
         id="stop1101"
         offset="0.50000000"
         style="stop-color:#ffffff;stop-opacity:0.22314049;" />
      <stop
         id="stop1102"
         offset="0.59930235"
         style="stop-color:#ffffff;stop-opacity:0.00000000;" />
      <stop
         id="stop1100"
         offset="1.0000000"
         style="stop-color:#ffffff;stop-opacity:0.60330576;" />
    </linearGradient>
    <linearGradient
       id="linearGradient902">
      <stop
         id="stop903"
         offset="0.00000000"
         style="stop-color:#000000;stop-opacity:0.00000000;" />
      <stop
         id="stop904"
         offset="1.0000000"
         style="stop-color:#000000;stop-opacity:0.22000000;" />
    </linearGradient>
    <linearGradient
       id="linearGradient892">
      <stop
         id="stop893"
         offset="0.00000000"
         style="stop-color:#ffffff;stop-opacity:0.00000000;" />
      <stop
         id="stop894"
         offset="1"
         style="stop-color:#fff;stop-opacity:1;" />
    </linearGradient>
    <linearGradient
       id="linearGradient888">
      <stop
         id="stop889"
         offset="0.0000000"
         style="stop-color:#565248;stop-opacity:1.0000000;" />
      <stop
         id="stop1861"
         offset="0.50000000"
         style="stop-color:#807d74;stop-opacity:1.0000000;" />
      <stop
         id="stop890"
         offset="1"
         style="stop-color:#fff;stop-opacity:1;" />
    </linearGradient>
    <linearGradient
       id="linearGradient891"
       x1="92.437965"
       x2="27.674332"
       xlink:href="#linearGradient888"
       y1="-3.9104078"
       y2="91.076988"
       gradientTransform="matrix(0.700576,0,0,0.485933,-5.122792,-13.34152)"
       gradientUnits="userSpaceOnUse" />
    <linearGradient
       id="linearGradient901"
       x1="53.335075"
       x2="54.855816"
       xlink:href="#linearGradient1133"
       y1="91.64518"
       y2="49.989117"
       gradientTransform="matrix(0.700576,0,0,0.485933,-5.122792,-13.34152)"
       gradientUnits="userSpaceOnUse" />
    <linearGradient
       id="linearGradient905"
       x1="-77.726181"
       x2="95.64444"
       xlink:href="#linearGradient888"
       y1="208.43991"
       y2="11.699047"
       gradientTransform="matrix(0.626143,0,0,0.543699,-5.122793,-13.34152)"
       gradientUnits="userSpaceOnUse" />
    <radialGradient
       cx="0.49222797"
       cy="0.828125"
       fx="0.49222797"
       fy="0.828125"
       id="radialGradient1132"
       r="0.76960242"
       xlink:href="#linearGradient1133" />
    <linearGradient
       id="linearGradient1138"
       x1="-231.05229"
       x2="-298.71738"
       xlink:href="#linearGradient1806"
       y1="289.79419"
       y2="101.2276"
       gradientTransform="scale(1.087146,0.91984)"
       gradientUnits="userSpaceOnUse" />
    <linearGradient
       id="linearGradient1140"
       x1="45.685757"
       x2="42.570801"
       xlink:href="#linearGradient888"
       y1="110.4447"
       y2="239.58067"
       gradientTransform="matrix(1.090889,0,0,0.312069,-5.122793,-13.34152)"
       gradientUnits="userSpaceOnUse" />
    <linearGradient
       id="linearGradient1141"
       x1="0"
       x2="0.92957747"
       xlink:href="#linearGradient888"
       y1="3.3012049"
       y2="-0.45783132" />
    <linearGradient
       id="linearGradient1144"
       x1="31.449743"
       x2="31.617281"
       xlink:href="#linearGradient892"
       y1="203.49899"
       y2="251.21892"
       gradientTransform="matrix(1.202193,0,0,0.283177,-5.122793,-13.34152)"
       gradientUnits="userSpaceOnUse" />
    <linearGradient
       id="linearGradient1146"
       x1="39.810947"
       x2="17.87653"
       xlink:href="#linearGradient892"
       y1="90.197021"
       y2="113.71949"
       gradientTransform="matrix(0.75425,0,0,0.451353,-5.122793,-13.34152)"
       gradientUnits="userSpaceOnUse" />
    <linearGradient
       id="linearGradient1148"
       x1="52.280853"
       x2="79.135391"
       xlink:href="#linearGradient892"
       y1="55.70734"
       y2="23.2999"
       gradientTransform="scale(1.329144,0.752364)"
       gradientUnits="userSpaceOnUse" />
    <linearGradient
       id="linearGradient1150"
       x1="35.190361"
       x2="8.3460579"
       xlink:href="#linearGradient892"
       y1="76.277557"
       y2="105.42543"
       gradientTransform="scale(1.328386,0.752793)"
       gradientUnits="userSpaceOnUse" />
    <linearGradient
       id="linearGradient1156"
       x1="25.220816"
       x2="25.220816"
       xlink:href="#linearGradient888"
       y1="178.48862"
       y2="234.26866"
       gradientTransform="matrix(1.382991,0,0,0.246157,-5.122792,-13.34152)"
       gradientUnits="userSpaceOnUse" />
    <linearGradient
       id="linearGradient1157"
       x1="51.46093"
       x2="-16.224497"
       xlink:href="#linearGradient888"
       y1="269.85831"
       y2="176.28694"
       gradientTransform="matrix(1.382991,0,0,0.246157,-5.122792,-13.34152)"
       gradientUnits="userSpaceOnUse" />
    <linearGradient
       id="linearGradient1166"
       x1="111.49758"
       x2="107.04918"
       xlink:href="#linearGradient1317"
       y1="131.25249"
       y2="148.78619"
       gradientTransform="matrix(0.69893,0,0,0.487078,-5.122793,-13.34152)"
       gradientUnits="userSpaceOnUse" />
    <linearGradient
       id="linearGradient1167"
       x1="141.60217"
       x2="88.447014"
       xlink:href="#linearGradient888"
       y1="228.39311"
       y2="133.5471"
       gradientTransform="matrix(0.676089,0,0,0.503532,-5.122793,-13.34152)"
       gradientUnits="userSpaceOnUse" />
    <linearGradient
       id="linearGradient1169"
       x1="146.69923"
       x2="74.533691"
       xlink:href="#linearGradient893"
       y1="224.57898"
       y2="81.4776"
       gradientTransform="matrix(0.677913,0,0,0.502178,-5.122793,-13.34152)"
       gradientUnits="userSpaceOnUse" />
    <linearGradient
       gradientTransform="scale(0.998371,1.001632)"
       id="linearGradient1170"
       x1="0.47284532"
       x2="0.48655096"
       xlink:href="#linearGradient902"
       y1="-0.016295359"
       y2="1.8378206" />
    <linearGradient
       id="linearGradient1171"
       x1="101.10657"
       x2="95.100159"
       xlink:href="#linearGradient902"
       y1="177.77768"
       y2="173.03152"
       gradientTransform="matrix(0.776772,0,0,0.438266,-5.122793,-13.34152)"
       gradientUnits="userSpaceOnUse" />
    <radialGradient
       cx="0.47887325"
       cy="0.53333336"
       fx="0.47535211"
       fy="0.26666668"
       id="radialGradient1315"
       r="0.41197181"
       xlink:href="#linearGradient1317" />
    <radialGradient
       cx="0.5"
       cy="0.50000006"
       fx="0.50352114"
       fy="0.18269235"
       id="radialGradient1316"
       r="0.34964636"
       xlink:href="#linearGradient1317" />
    <linearGradient
       id="linearGradient1404"
       x1="88.755692"
       x2="88.996956"
       xlink:href="#linearGradient892"
       y1="169.09755"
       y2="182.99155"
       gradientTransform="matrix(0.782147,0,0,0.435254,-5.122793,-13.34152)"
       gradientUnits="userSpaceOnUse" />
    <linearGradient
       gradientTransform="scale(0.997825,1.00218)"
       id="linearGradient1505"
       x1="0.47157744"
       x2="0.48548824"
       xlink:href="#linearGradient902"
       y1="-0.02485317"
       y2="1.8570156" />
    <linearGradient
       gradientTransform="scale(0.995847,1.00417)"
       id="linearGradient1506"
       x1="0.4704251"
       x2="0.48481107"
       xlink:href="#linearGradient902"
       y1="-0.04365262"
       y2="1.9025002" />
    <linearGradient
       gradientTransform="scale(0.997153,1.002855)"
       id="linearGradient2740"
       x1="0.47041038"
       x2="0.48453596"
       xlink:href="#linearGradient902"
       y1="-0.033741195"
       y2="1.8771822" />
    <linearGradient
       id="linearGradient4283"
       x1="-0.77314812"
       x2="0.99074072"
       xlink:href="#linearGradient893"
       y1="2.0837989"
       y2="-0.033519555" />
    <linearGradient
       id="linearGradient4284"
       x1="-2.3960868e-17"
       x2="0.92957747"
       xlink:href="#linearGradient893"
       y1="3.3012049"
       y2="-0.45783132" />
    <linearGradient
       inkscape:collect="always"
       xlink:href="#linearGradient1806"
       id="linearGradient1949"
       gradientUnits="userSpaceOnUse"
       gradientTransform="scale(1.087146,0.91984)"
       x1="-231.05229"
       y1="289.79419"
       x2="-298.71738"
       y2="101.2276" />
    <linearGradient
       inkscape:collect="always"
       xlink:href="#linearGradient1806"
       id="linearGradient1951"
       gradientUnits="userSpaceOnUse"
       gradientTransform="scale(1.087146,0.91984)"
       x1="-231.05229"
       y1="289.79419"
       x2="-298.71738"
       y2="101.2276" />
    <linearGradient
       inkscape:collect="always"
       xlink:href="#linearGradient1806"
       id="linearGradient1953"
       gradientUnits="userSpaceOnUse"
       gradientTransform="scale(1.087146,0.91984)"
       x1="-231.05229"
       y1="289.79419"
       x2="-298.71738"
       y2="101.2276" />
  </defs>
  <sodipodi:namedview
     bordercolor="#666666"
     borderopacity="1.0"
     id="base"
     inkscape:cx="65.131869"
     inkscape:cy="54.064093"
     inkscape:pageopacity="0.0"
     inkscape:pageshadow="2"
     inkscape:window-height="975"
     inkscape:window-width="1400"
     inkscape:window-x="0"
     inkscape:window-y="25"
     inkscape:zoom="2.8284272"
     pagecolor="#ffffff"
     showborder="true"
     inkscape:current-layer="Andysvg" />
  <path
     d="M 12.880596,1.7286954e-11 C 11.160451,-5.7712827e-06 9.7753398,1.4458404 9.7753398,3.2414007 L 9.7753398,32.600293 C 9.7753398,34.395857 11.160451,35.841695 12.880596,35.841695 L 13.933528,35.841695 L 13.933528,38.300691 L 11.02458,38.300691 C 10.230783,38.300696 9.3827966,38.91156 9.007948,39.641956 L 3.5291343,50.316226 C 2.7871947,51.761881 4.7062978,54.321407 6.2774646,54.321407 L 56.496957,54.321407 C 57.832186,54.321407 59.850217,52.508832 59.245287,51.266293 L 58.60282,49.925023 C 60.397227,49.329654 62.375608,47.161877 65.473646,48.770041 C 70.152095,51.13273 72.722442,52.049198 76.145733,49.198502 C 79.988062,47.436274 77.811384,50.376553 74.771569,54.172373 C 74.315456,53.90462 73.911439,53.587792 73.379557,53.427223 C 73.379557,53.427223 68.614298,52.375445 65.509338,54.377292 C 62.404385,56.379144 57.717261,60.093132 57.032346,61.046381 C 56.256103,62.094974 56.257029,64.273879 57.30004,65.051561 L 60.494529,67.436037 C 62.478654,68.915416 66.220872,69.661308 68.079206,68.013525 L 76.574044,60.468887 C 77.607685,59.55235 78.123811,57.146851 77.198665,56.277422 C 76.885313,55.77425 76.383349,55.228877 75.770961,54.731238 C 77.000911,53.574952 78.45224,51.829413 79.375913,49.422049 C 81.671792,43.60276 74.361018,50.62804 71.238001,49.477934 C 68.114984,48.327832 63.291703,44.977472 59.602214,47.782716 C 58.809318,48.385578 58.302934,48.594655 57.960354,48.621008 L 57.549889,47.801345 C 57.863504,46.87579 59.001881,45.480932 60.494529,45.007036 C 63.479812,43.927515 65.039001,42.106437 65.063181,40.387106 C 65.08736,38.799496 62.252175,37.203203 59.405904,35.767181 C 56.433441,34.331153 52.298977,33.497394 51.285833,33.699388 C 51.108049,33.638104 50.999093,33.710603 50.839674,33.699388 C 50.959076,33.354283 51.035984,32.989435 51.035984,32.600293 L 51.035984,3.2414007 C 51.035984,1.4458462 49.650871,1.7286954e-11 47.930728,1.7286954e-11 L 12.880596,1.7286954e-11 z M 52.695695,34.798484 C 56.471824,34.946972 63.532094,38.153651 63.653324,40.182192 C 63.7471,41.84063 58.84476,43.654839 56.550496,45.733558 L 53.58801,39.641956 C 53.151898,38.74617 52.159233,38.300691 51.196601,38.300691 L 46.824257,38.300691 L 46.824257,35.841695 L 47.930728,35.841695 C 48.72207,35.841695 49.43583,35.5086 49.983053,35.003403 C 50.291499,35.078852 50.680954,35.125907 51.321525,34.928883 C 51.697405,34.813275 52.156246,34.777274 52.695695,34.798484 z "
     id="rect1009"
     style="fill:white;fill-rule:evenodd;stroke-width:1.44734821pt" />
  <g
     id="g4293"
     style="fill:url(#linearGradient1138);fill-opacity:1;stroke-width:0.50497097;stroke-opacity:0.76100631"
     transform="matrix(0.571081,0,0,0.515373,197.7769,-5.877824)">
    <path
       d="M -270.85787,33.814995 C -289.35564,33.925992 -307.93321,33.592782 -326.38104,33.981747 C -331.43469,35.696391 -331.02221,41.899652 -330.68524,46.15332 C -330.75782,60.227303 -330.53537,74.298225 -330.21167,88.36826 C -328.21297,91.039611 -323.21766,90.618387 -322.68469,94.539015 C -320.78054,96.259426 -317.05071,94.88215 -314.4389,95.333237 C -298.54999,95.360274 -282.66107,95.387302 -266.77215,95.414339 C -266.35587,90.465192 -260.12609,88.824447 -255.81783,89.540255 C -256.01688,89.058389 -261.69557,87.939375 -259.61591,84.491525 C -259.45681,68.72727 -259.19734,52.882199 -259.82064,37.168229 C -261.19394,32.980583 -267.34179,33.83368 -270.85787,33.814995 z M -236.65184,97.260473 C -234.79025,100.12642 -237.08724,103.09386 -239.92892,104.16357 C -242.6311,105.91539 -245.59105,107.62992 -248.52894,108.76804 C -253.1773,108.19079 -251.42424,101.88475 -255.01281,99.896645 C -260.33594,96.447012 -267.21045,98.43943 -273.23329,97.939231 C -291.8249,97.94887 -310.41651,97.958519 -329.00813,97.968158 C -335.45898,103.56578 -339.16595,111.40269 -341.55034,119.32178 C -337.25147,124.2061 -329.89606,122.27575 -324.10438,122.40002 C -298.64553,122.23171 -273.11679,122.61546 -247.69897,122.24542 C -243.40174,121.14669 -247.44685,114.84894 -243.58488,113.04441 C -242.73865,112.73374 -247.81245,114.4382 -247.26205,111.62955 C -245.49117,106.66028 -239.14113,105.99595 -235.92338,102.36811 C -234.39131,99.755669 -236.26958,96.922488 -238.33047,95.260495 C -237.77093,95.927151 -237.21138,96.593817 -236.65184,97.260473 z M -240.64255,111.75263 C -243.64086,113.13223 -237.02792,110.69536 -235.55512,111.97369 C -229.71113,112.74417 -224.16461,117.19625 -218.12358,115.22951 C -225.97639,116.31604 -232.799,109.03014 -240.64255,111.75263 z M -212.01083,112.33724 C -215.98173,113.85021 -208.21543,112.17765 -210.07883,115.87566 C -212.50961,119.93855 -206.99008,113.8662 -209.61436,112.54677 C -210.16198,111.94632 -211.27989,112.47663 -212.01083,112.33724 z M -213.97451,120.82946 C -220.13871,124.32615 -228.37873,119.08124 -233.85995,124.39439 C -238.36465,128.00055 -244.57099,130.35185 -247.0433,135.75122 C -247.65922,139.60202 -243.25109,141.90251 -240.44565,143.71808 C -235.60127,146.54512 -228.8227,145.75388 -225.20082,141.42836 C -220.62679,137.96117 -216.44182,134.08489 -212.48592,129.96782 C -212.82701,126.95048 -214.43694,123.63971 -213.97451,120.82946 z "
       id="path2720"
       style="fill:url(#linearGradient1949);font-family:helvetica" />
    <path
       d="M -269.68453,32.256957 C -288.76965,32.351184 -307.87514,32.249603 -326.94796,32.349264 C -332.63884,33.663474 -333.90446,40.291305 -333.21597,45.149113 C -333.11996,59.896901 -333.07471,74.659754 -332.61729,89.39481 C -331.88583,93.310348 -324.86009,92.098674 -325.11097,96.44089 C -328.07184,96.184706 -331.5534,96.317135 -333.07248,99.246492 C -338.92562,104.98392 -341.99312,112.66465 -344.27268,120.28679 C -340.22572,125.96631 -332.26467,125.31453 -326.02946,124.71751 C -300.16629,124.7277 -274.28316,124.82043 -248.43245,124.77905 C -244.42424,124.78686 -243.30672,120.35609 -243.96666,117.2099 C -242.88598,112.93536 -237.04086,113.94554 -233.80717,114.98513 C -228.01851,116.64297 -221.26418,120.43074 -215.57982,116.37592 C -211.36091,113.71809 -213.05678,118.4029 -215.77936,119.43344 C -220.82539,122.25797 -227.09125,118.98178 -232.39677,121.20855 C -236.53238,123.88957 -240.74707,126.85249 -244.76678,129.74666 C -248.34219,132.01467 -251.90947,137.38626 -248.13747,140.97315 C -243.79274,146.02948 -236.37425,149.4527 -229.68248,147.08651 C -225.09383,144.85973 -221.79206,140.75401 -217.61535,137.88661 C -215.10454,135.69469 -212.49235,133.26839 -210.83749,130.50207 C -210.86477,126.92195 -214.68529,121.91303 -210.252,119.57013 C -207.25619,117.95208 -205.81053,112.12098 -209.75314,110.87946 C -214.16982,109.44692 -216.95156,115.09837 -221.43751,113.68608 C -228.47365,112.76758 -235.5565,107.20489 -242.69931,110.72434 C -246.89551,113.06547 -243.47174,109.4356 -241.45524,108.56544 C -237.85613,106.84628 -232.73147,104.36798 -233.94637,99.617708 C -234.27189,95.083838 -239.22223,93.197522 -242.95318,91.723135 C -247.61613,89.074942 -253.27003,89.345117 -258.06082,86.933298 C -257.89248,70.385101 -257.58805,53.76423 -258.26571,37.261116 C -259.2092,32.393288 -265.59824,31.96057 -269.68453,32.256957 z M -258.66259,91.764016 C -251.5059,92.239344 -243.21163,93.474137 -238.58238,99.271629 C -238.96251,103.06003 -244.00295,103.80224 -246.52821,106.14082 C -248.92267,108.48087 -251.12372,105.80503 -251.02958,103.27159 C -252.70852,98.336432 -258.20582,95.710815 -263.31841,96.533197 C -267.00561,96.7255 -263.71935,91.937514 -261.395,92.380192 C -260.48382,92.178338 -259.57521,91.953759 -258.66259,91.764016 z "
       id="path2723"
       style="fill:url(#linearGradient1951);font-family:helvetica" />
    <path
       d="M -324.0398,30.70877 C -336.3492,30.820231 -335.15663,39.652507 -334.79476,45.313268 C -334.5469,60.436643 -334.38614,75.599009 -334.01234,90.698281 C -333.20516,93.057424 -330.71249,93.985661 -328.75475,95.252079 C -334.4553,96.476239 -336.96996,102.43195 -340.11175,106.59303 C -342.33294,111.36531 -347.84019,115.92868 -345.92111,121.43642 C -344.00204,126.94416 -332.21757,127.68181 -324.95408,127.12866 C -299.06901,127.09789 -273.17022,127.14905 -247.29372,127.06713 C -243.29961,126.16956 -240.99668,122.03601 -241.4977,118.23645 C -238.30082,114.95371 -233.32521,118.03039 -229.53292,118.63002 C -225.71641,119.31313 -232.5646,119.27527 -233.19362,120.54849 C -238.23604,122.95799 -242.6166,126.65447 -246.90973,130.10509 C -250.44674,132.97354 -252.4229,138.10741 -249.57412,142.08235 C -246.21315,145.92284 -241.41489,148.84284 -236.30395,149.79628 C -230.65487,150.83779 -225.57101,147.82678 -221.6157,144.24077 C -216.87391,140.59839 -212.0873,136.78287 -208.84361,131.80554 C -207.76302,128.26399 -211.47449,123.86671 -208.08348,121.09796 C -204.93438,118.46115 -204.06893,113.02076 -207.41836,110.2673 C -212.81988,106.81278 -218.36682,114.55112 -223.89705,111.29128 C -227.94209,110.1659 -231.91311,108.52596 -236.17676,108.45194 C -231.52711,105.88023 -229.62903,98.782331 -234.08944,95.153402 C -239.61551,89.404431 -248.455,88.793917 -255.40182,85.744487 C -255.86992,78.940296 -255.53665,71.972758 -255.70928,65.098797 C -255.80747,55.730822 -255.73864,46.312632 -255.94025,36.975777 C -258.03631,31.236293 -265.34014,30.439522 -270.76286,30.729689 C -289.40725,30.770714 -311.88665,30.597309 -324.0398,30.70877 z M -255.46516,94.482857 C -250.34561,95.62106 -244.69322,96.21649 -240.83258,100.05203 C -242.37635,102.55028 -245.27573,103.64481 -247.80048,104.97505 C -249.71506,99.684643 -254.39847,94.970039 -260.51378,95.138259 C -260.66903,94.131274 -256.73261,94.551178 -255.46516,94.482857 z "
       id="path2737"
       sodipodi:nodetypes="ccccczccccccccccccccccccczccccc"
       style="fill:url(#linearGradient1953);font-family:helvetica" />
  </g>
  <rect
     height="4.9569535"
     id="rect1155"
     style="fill:url(#linearGradient1156);fill-opacity:1;fill-rule:evenodd;stroke:url(#linearGradient1157);stroke-width:0.84447899pt"
     width="32.87598"
     x="13.909135"
     y="33.548084" />
  <path
     d="M 51.256556,33.708895 C 49.236557,33.012546 48.274033,35.871482 51.281044,34.9466 C 54.288065,34.021718 63.481942,37.868996 63.620486,40.187329 C 63.759031,42.637388 52.842161,45.424635 55.835073,48.907826 C 58.625994,52.649806 60.754142,46.353107 65.432602,48.781657 C 70.111057,51.144353 72.69306,52.067069 76.116351,49.216371 C 80.025628,47.423451 77.710303,50.488926 74.588308,54.380353 C 71.466314,58.27178 77.114391,55.260851 79.347171,49.441567 C 81.64305,43.622278 74.332521,50.642992 71.209504,49.492887 C 68.086487,48.342781 63.256679,44.988654 59.567189,47.793898 C 55.877699,50.599142 57.484277,45.968206 60.469567,45.020416 C 63.454855,43.9409 65.013811,42.124855 65.037991,40.405527 C 65.06217,38.817924 62.222741,37.216454 59.37647,35.780431 C 56.404008,34.344408 52.269697,33.506899 51.256556,33.708895 z "
     id="path2676"
     sodipodi:nodetypes="czzczczzzzzzzc"
     style="fill:url(#linearGradient1169);fill-rule:evenodd;stroke-width:0.90459263;stroke-opacity:0.07438019" />
  <path
     d="M 3.5020987,50.328295 C 2.7601597,51.773957 4.6705973,54.33199 6.2417638,54.33199 L 56.468963,54.33199 C 57.804197,54.33199 59.813559,52.52409 59.208629,51.28155 L 53.546646,39.651776 C 53.110534,38.75599 52.134899,38.317211 51.172269,38.317211 L 10.990517,38.317211 C 10.196719,38.317211 9.3562771,38.921382 8.9814285,39.651776 L 3.5020987,50.328295 z "
     id="path1139"
     sodipodi:nodetypes="czzzzzzzz"
     style="fill:url(#linearGradient1140);fill-opacity:1;fill-rule:evenodd;stroke-width:1.44734821pt" />
  <rect
     height="35.842587"
     id="rect1137"
     rx="3.104954"
     ry="3.2410851"
     style="fill:url(#linearGradient905);fill-opacity:1;fill-rule:evenodd;stroke-width:1.62826681"
     width="41.277622"
     x="9.7341614"
     y="0.019731255" />
  <rect
     height="22.678873"
     id="rect1131"
     style="fill:url(#linearGradient901);fill-opacity:1;fill-rule:evenodd;stroke:url(#linearGradient891);stroke-width:0.85474644pt"
     width="33.224487"
     x="13.943374"
     y="5.5530038" />
  <path
     d="M 10.690702,18.158295 L 10.508058,31.21796 C 10.478941,33.299866 11.615728,34.632953 13.613011,34.649698 L 36.352233,34.840351 L 38.543964,29.502092 L 13.1564,29.311441 L 12.973755,18.062969 L 10.690702,18.158295 z "
     id="path1145"
     sodipodi:nodetypes="czzccccc"
     style="fill:url(#linearGradient1146);fill-opacity:1;fill-rule:evenodd;stroke-width:1pt" />
  <g
     id="g1791"
     transform="matrix(0.571081,0,0,0.596119,-5.122788,-13.34152)">
    <path
       d="M 42.062098,33.460351 L 77.341205,33.008055 C 82.787126,32.938235 89.553204,38.416797 89.553204,43.863165 L 89.553204,60.14583 L 41.609801,59.693534 L 42.062098,33.460351 z "
       id="path1147"
       sodipodi:nodetypes="czzccc"
       style="fill:url(#linearGradient1148);fill-opacity:1;fill-rule:evenodd;stroke-width:1pt" />
    <path
       d="M 78.337784,67.629235 L 46.723745,67.724544 C 41.843589,67.739257 35.829319,62.771024 35.877168,57.891081 L 36.020221,43.301821 L 78.973514,44.128288 L 78.337784,67.629235 z "
       id="path1149"
       sodipodi:nodetypes="czzccc"
       style="fill:url(#linearGradient1150);fill-opacity:1;fill-rule:evenodd;stroke-width:1pt" />
  </g>
  <path
     d="M 73.338718,53.437828 C 73.338718,53.437828 68.589964,52.389236 65.485005,54.391083 C 62.380057,56.392931 57.676966,60.110661 56.992051,61.063909 C 56.215808,62.112502 56.222998,64.289918 57.266009,65.067598 L 60.462297,67.450753 C 62.446422,68.930126 66.1837,69.670494 68.042034,68.022712 L 76.534994,60.49195 C 77.568635,59.57541 78.099398,57.167033 77.174251,56.297605 C 76.5168,55.241888 75.108003,53.97194 73.338718,53.437828 z "
     id="path1159"
     sodipodi:nodetypes="cczzzzzzc"
     style="fill:url(#linearGradient1167);fill-opacity:1;fill-rule:evenodd;stroke-width:0.72367412;stroke-opacity:0.34710741" />
  <path
     d="M 76.169701,58.871411 L 66.782336,66.298109 C 65.103991,67.625911 62.638802,66.608698 61.284191,66.402167 C 59.929569,66.195623 58.772831,65.274142 58.909823,65.544231 C 59.046808,65.814322 60.599271,67.561965 62.106092,68.022712 C 63.612902,68.483447 66.236308,69.455361 67.695553,67.823328 C 69.154803,66.191295 77.813503,60.3013 76.169701,58.871411 z "
     id="path1160"
     sodipodi:nodetypes="czzzzzc"
     style="fill:url(#linearGradient1171);fill-opacity:1;fill-rule:evenodd;stroke-width:1pt" />
  <path
     d="M 70.324082,62.675555 C 72.150527,59.911097 63.474917,54.096213 57.173694,62.389572 C 57.812946,64.58207 61.583318,65.703461 64.448103,65.546246 C 67.223896,65.393914 68.832485,64.137222 70.324082,62.675555 z "
     id="path1403"
     sodipodi:nodetypes="cczc"
     style="fill:url(#linearGradient1404);fill-opacity:1;fill-rule:evenodd;stroke-width:1pt" />
  <path
     d="M 74.048898,53.831059 C 72.541905,54.155604 70.441233,54.872915 69.046624,56.037035 C 68.415436,55.617659 66.449487,54.954529 65.501537,54.523678 L 65.26057,54.678806 C 68.930997,56.544416 72.792793,56.948425 72.476871,59.907676 C 72.736616,59.972694 73.147304,60.039024 72.962284,59.616739 C 72.782873,57.539435 70.548871,56.543671 69.704298,56.29438 C 70.929423,54.774692 72.68993,54.442594 74.048898,53.831059 z "
     id="path1519"
     sodipodi:nodetypes="cccccccc"
     style="fill:url(#linearGradient1166);fill-opacity:1;fill-rule:evenodd;stroke-width:1.08551121" />
  <path
     d="M 5.6658583,50.135761 C 5.1443689,51.227852 5.8270758,53.160233 7.591498,53.160233 L 54.85191,53.160233 C 55.790415,53.160233 57.202739,51.794511 56.777552,50.855879 L 52.797896,42.070521 C 52.491356,41.393822 51.805608,41.062365 51.129008,41.062365 L 10.929272,41.06236 C 10.371333,41.06236 9.7806089,41.518764 9.517137,42.070521 L 5.6658583,50.135761 z "
     id="path1143"
     sodipodi:nodetypes="czzzzzzzz"
     style="fill:url(#linearGradient1144);fill-opacity:1;fill-rule:evenodd;stroke-width:1pt" />
  <text
     id="text1232"
     style="font-size:12px;font-style:normal;font-weight:normal;fill:black;fill-opacity:1;stroke:none;stroke-width:1pt;stroke-linecap:butt;stroke-linejoin:miter;stroke-opacity:1;font-family:helvetica"
     x="-2.8542085"
     xml:space="preserve"
     y="-15.29093"><tspan
       id="tspan1233">My Computer</tspan></text>
  <text
     id="text1235"
     style="font-size:2.96074796px;font-style:normal;font-weight:normal;fill:black;fill-opacity:1;stroke:none;stroke-width:1pt;stroke-linecap:butt;stroke-linejoin:miter;stroke-opacity:1;font-family:helvetica"
     x="11.863244"
     xml:space="preserve"
     y="-9.2535515"><tspan
       id="tspan1236">Created by Andrew Fitzsimon</tspan></text>
</svg>
